<?xml version="1.0" encoding="UTF-8" standalone="no"?>
<!DOCTYPE svg PUBLIC "-//W3C//DTD SVG 1.1//EN" "http://www.w3.org/Graphics/SVG/1.1/DTD/svg11.dtd">
<svg xmlns="http://www.w3.org/2000/svg" version="1.1" viewBox="0.00 0.00 376.00 346.00">
<g stroke-width="2.00" fill="none" stroke-linecap="butt">
<path stroke="#808080" vector-effect="non-scaling-stroke" d="
  M 279.27 91.94
  Q 276.67 87.75 272.68 84.83
  A 0.75 0.75 0.0 0 1 272.43 83.93
  C 276.53 74.20 280.45 61.48 270.21 53.87
  Q 269.71 53.49 270.25 53.18
  L 288.01 43.25
  Q 290.66 41.77 289.00 39.23
  L 288.57 38.58
  A 2.43 2.43 0.0 0 0 285.35 37.79
  L 271.07 45.81
  Q 269.94 46.45 270.49 45.27
  L 277.88 29.61
  A 2.80 2.80 0.0 0 0 276.25 25.77
  L 275.45 25.49
  A 2.35 2.34 22.0 0 0 272.57 26.71
  L 264.97 42.87
  Q 264.46 43.97 264.24 42.78
  L 261.49 27.07
  Q 260.98 24.22 258.13 24.71
  L 257.27 24.85
  A 2.31 2.30 -10.1 0 0 255.39 27.53
  L 259.12 48.05
  Q 259.22 48.58 258.70 48.44
  C 249.58 46.01 244.02 51.09 239.01 57.82
  Q 238.69 58.25 238.18 58.11
  C 224.96 54.39 214.37 58.70 206.58 69.72
  Q 206.29 70.11 205.81 70.14
  Q 204.16 70.22 202.49 70.26
  C 190.83 70.49 182.89 80.47 184.50 92.03
  A 0.90 0.90 0.0 0 1 184.18 92.85
  C 171.76 103.24 174.44 121.22 188.28 128.75
  Q 188.39 128.81 189.27 129.09
  Q 190.40 129.45 190.40 131.25
  Q 190.37 157.50 190.39 184.49
  A 3.04 3.03 -89.9 0 0 193.40 187.52
  Q 198.61 187.57 204.26 187.52
  Q 207.58 187.50 208.47 184.99
  Q 208.61 184.59 209.04 184.59
  L 314.81 184.59
  A 0.90 0.89 -5.5 0 1 315.69 185.31
  Q 316.13 187.56 318.75 187.58
  Q 324.93 187.61 330.83 187.48
  A 2.49 2.49 0.0 0 0 333.27 184.99
  L 333.28 163.14
  A 2.33 2.33 0.0 0 0 331.15 160.82
  L 330.36 160.75
  Q 327.20 160.47 327.20 163.64
  L 327.22 181.26
  Q 327.22 181.50 326.99 181.50
  L 321.75 181.50
  A 0.26 0.25 -0.0 0 1 321.49 181.25
  L 321.49 113.27
  A 0.25 0.24 -90.0 0 1 321.73 113.02
  L 326.98 113.01
  A 0.23 0.23 0.0 0 1 327.22 113.24
  L 327.21 140.21
  A 2.49 2.48 -87.3 0 0 329.46 142.69
  L 330.29 142.77
  Q 333.21 143.05 333.22 140.12
  Q 333.32 125.02 333.19 109.99
  C 333.16 106.57 330.10 107.20 327.82 107.02
  Q 327.32 106.98 327.31 106.48
  Q 327.22 99.37 327.16 92.24
  Q 327.10 84.34 320.35 80.37
  C 317.64 78.77 312.70 76.72 316.72 72.75
  Q 317.03 72.43 317.04 71.98
  L 317.05 59.77
  A 3.28 3.27 0.1 0 0 313.77 56.49
  L 293.00 56.48
  A 2.83 2.83 0.0 0 0 290.17 59.31
  Q 290.17 66.25 290.20 72.00
  Q 290.20 72.58 290.72 73.17
  C 292.53 75.22 291.88 77.61 289.51 78.85
  C 283.93 81.77 280.09 85.13 279.73 91.83
  Q 279.68 92.61 279.27 91.94"
/>
<path stroke="#808080" vector-effect="non-scaling-stroke" d="
  M 163.83 35.06
  C 174.15 34.76 182.20 33.49 193.92 34.84
  Q 197.07 35.20 197.19 32.03
  L 197.21 31.44
  A 2.54 2.53 -86.4 0 0 194.90 28.82
  Q 179.43 27.44 164.01 29.29
  Q 161.14 29.63 161.47 32.50
  L 161.53 33.07
  A 2.25 2.24 85.7 0 0 163.83 35.06"
/>
<path stroke="#808080" vector-effect="non-scaling-stroke" d="
  M 208.99 33.32
  A 3.02 3.02 0.0 0 0 205.97 30.30
  A 3.02 3.02 0.0 0 0 202.95 33.32
  A 3.02 3.02 0.0 0 0 205.97 36.34
  A 3.02 3.02 0.0 0 0 208.99 33.32"
/>
<path stroke="#808080" vector-effect="non-scaling-stroke" d="
  M 155.79 34.21
  A 3.03 3.03 0.0 0 0 152.76 31.18
  A 3.03 3.03 0.0 0 0 149.73 34.21
  A 3.03 3.03 0.0 0 0 152.76 37.24
  A 3.03 3.03 0.0 0 0 155.79 34.21"
/>
<path stroke="#808080" vector-effect="non-scaling-stroke" d="
  M 216.81 38.75
  C 225.82 41.32 232.55 43.88 240.96 47.65
  A 2.24 2.24 0.0 0 0 243.96 46.43
  L 244.22 45.79
  Q 245.29 43.09 242.66 41.85
  Q 230.65 36.21 217.81 32.80
  A 2.42 2.41 13.7 0 0 214.83 34.60
  L 214.70 35.19
  A 3.02 3.02 0.0 0 0 216.81 38.75"
/>
<path stroke="#808080" vector-effect="non-scaling-stroke" d="
  M 120.07 48.83
  Q 129.92 43.72 142.64 39.82
  A 2.32 2.32 0.0 0 0 144.17 36.89
  L 143.94 36.18
  Q 143.03 33.38 140.22 34.26
  Q 125.77 38.74 112.48 46.01
  Q 110.01 47.36 111.08 49.96
  L 111.28 50.44
  A 2.29 2.29 0.0 0 0 114.26 51.69
  Q 115.59 51.15 120.07 48.83"
/>
<path stroke="#808080" vector-effect="non-scaling-stroke" d="
  M 43.47 122.28
  Q 41.02 122.22 38.00 122.27
  C 33.59 122.34 33.70 128.18 37.54 128.12
  Q 38.23 128.10 38.00 128.76
  Q 37.15 131.22 37.98 133.69
  A 0.42 0.41 81.2 0 1 37.59 134.23
  C 35.22 134.23 27.82 133.01 28.72 137.62
  Q 28.97 138.88 30.66 140.20
  Q 39.42 147.07 48.25 153.84
  Q 52.58 157.17 56.39 158.59
  Q 62.97 161.05 68.75 161.05
  Q 100.75 161.08 132.74 161.01
  Q 138.22 161.00 144.41 158.37
  Q 148.59 156.59 154.33 152.05
  Q 162.28 145.75 170.25 139.48
  C 173.08 137.24 171.21 134.25 168.07 134.25
  Q 162.45 134.24 156.83 134.22
  Q 156.33 134.22 156.43 133.74
  C 157.72 127.50 154.13 122.91 147.83 122.25
  Q 147.25 122.19 147.40 121.63
  Q 148.16 118.80 147.13 116.04
  A 1.02 0.98 -43.9 0 1 147.16 115.26
  C 149.25 110.87 145.41 110.22 142.27 110.31
  A 0.67 0.66 82.0 0 1 141.60 109.80
  C 141.11 107.88 140.85 105.85 140.19 104.14
  Q 136.70 95.07 128.26 90.06
  Q 127.78 89.77 128.12 89.33
  C 133.35 82.69 129.34 75.35 122.19 73.04
  Q 121.66 72.87 121.59 72.32
  Q 120.69 66.03 114.48 64.80
  Q 114.02 64.71 113.97 64.25
  Q 113.19 57.06 107.75 54.30
  Q 104.74 52.77 103.35 55.23
  C 102.61 56.53 103.45 58.60 100.86 58.67
  C 95.22 58.83 89.92 57.94 86.24 63.31
  C 84.70 65.57 82.20 65.88 80.94 68.13
  Q 79.58 70.55 79.17 73.36
  A 0.74 0.73 88.9 0 1 78.59 73.97
  C 71.34 75.50 69.89 80.99 69.82 87.63
  A 1.06 1.04 -13.3 0 1 69.24 88.55
  L 67.80 89.28
  A 0.64 0.63 -30.6 0 1 67.00 89.08
  Q 62.96 83.39 56.52 80.80
  A 2.93 2.92 -68.5 0 0 52.69 82.47
  L 52.44 83.14
  A 2.27 2.27 0.0 0 0 53.70 86.06
  Q 58.57 88.05 61.84 92.17
  A 0.70 0.70 0.0 0 1 61.75 93.13
  Q 54.24 99.64 52.80 109.51
  A 1.22 1.20 6.9 0 1 51.47 110.54
  Q 47.62 110.14 43.76 110.34
  C 39.48 110.56 39.61 116.30 43.41 116.22
  Q 43.70 116.22 43.70 116.51
  L 43.74 122.01
  Q 43.74 122.29 43.47 122.28"
/>
<path stroke="#808080" vector-effect="non-scaling-stroke" d="
  M 333.36 151.79
  A 3.02 3.02 0.0 0 0 330.34 148.77
  A 3.02 3.02 0.0 0 0 327.32 151.79
  A 3.02 3.02 0.0 0 0 330.34 154.81
  A 3.02 3.02 0.0 0 0 333.36 151.79"
/>
<path stroke="#808080" vector-effect="non-scaling-stroke" d="
  M 112.29 177.05
  A 1.66 1.66 0.0 0 1 111.39 178.24
  C 102.65 182.60 92.89 184.79 83.08 186.76
  A 2.44 2.44 0.0 0 0 81.15 189.49
  L 81.22 190.02
  Q 81.63 192.95 84.54 192.45
  Q 98.25 190.11 109.23 185.77
  Q 114.69 183.62 115.81 182.32
  Q 117.52 180.34 121.50 179.43
  Q 135.80 176.16 152.90 172.55
  A 2.99 2.98 -13.1 0 1 156.40 174.72
  L 156.62 175.55
  Q 157.51 179.00 154.18 180.26
  Q 126.45 190.77 99.38 200.97
  C 93.55 203.17 87.70 204.85 82.25 204.67
  Q 72.41 204.34 62.54 204.23
  Q 59.24 204.19 56.08 205.18
  Q 48.41 207.59 39.96 210.33
  Q 37.11 211.25 38.04 214.10
  L 38.23 214.69
  A 2.39 2.39 0.0 0 0 41.24 216.21
  Q 49.89 213.39 57.57 211.10
  Q 60.69 210.17 64.02 210.26
  C 78.72 210.64 88.22 211.62 99.74 207.26
  Q 127.71 196.68 155.68 186.12
  C 160.77 184.19 164.04 179.26 162.59 173.90
  C 161.30 169.16 156.00 165.62 151.24 166.66
  Q 134.99 170.23 118.74 173.89
  Q 118.24 174.00 117.98 173.55
  C 116.59 171.06 115.59 168.50 112.51 167.68
  Q 110.13 167.06 103.26 167.88
  Q 90.31 169.44 77.49 171.90
  Q 74.89 172.39 71.76 171.02
  C 61.35 166.44 48.00 166.51 39.05 174.25
  A 3.03 3.02 -39.1 0 0 38.62 178.37
  L 39.07 178.96
  A 2.17 2.16 -38.5 0 0 42.19 179.31
  C 51.41 171.62 62.27 173.28 72.33 177.79
  C 73.58 178.35 75.09 178.44 76.25 178.23
  C 87.06 176.25 97.73 174.37 108.71 173.48
  C 111.11 173.29 112.76 174.56 112.29 177.05"
/>
<path stroke="#808080" vector-effect="non-scaling-stroke" d="
  M 322.2330 197.1893
  A 2.91 2.91 0.0 0 0 320.0827 193.6804
  L 319.8883 193.6337
  A 2.91 2.91 0.0 0 0 316.3793 195.7840
  L 312.8870 210.3307
  A 2.91 2.91 0.0 0 0 315.0373 213.8396
  L 315.2317 213.8863
  A 2.91 2.91 0.0 0 0 318.7407 211.7360
  L 322.2330 197.1893"
/>
<path stroke="#808080" vector-effect="non-scaling-stroke" d="
  M 215.45 203.49
  Q 214.82 204.04 214.10 203.61
  Q 206.38 198.97 200.10 202.45
  Q 194.99 205.27 193.83 210.77
  C 192.53 216.96 194.96 220.51 199.41 225.19
  Q 205.80 231.93 212.08 238.53
  A 3.17 3.17 0.0 0 0 216.69 238.53
  Q 223.82 230.97 231.12 223.27
  C 236.60 217.48 236.64 208.48 230.46 203.57
  C 226.05 200.07 219.79 199.65 215.45 203.49"
/>
<path stroke="#808080" vector-effect="non-scaling-stroke" d="
  M 160.61 221.33
  C 159.13 223.46 155.83 228.19 159.37 230.31
  C 161.47 231.57 162.99 229.98 163.79 227.99
  C 164.62 225.92 166.25 224.04 166.69 222.12
  C 167.30 219.42 165.78 217.33 164.45 215.29
  C 163.03 213.14 165.47 209.65 166.50 207.81
  A 2.66 2.66 0.0 0 0 166.09 204.67
  C 164.63 203.15 162.46 203.32 161.23 205.14
  C 159.19 208.18 157.51 211.78 158.06 215.58
  C 158.32 217.38 159.59 218.85 160.62 220.36
  A 0.86 0.85 45.7 0 1 160.61 221.33"
/>
<path stroke="#808080" vector-effect="non-scaling-stroke" d="
  M 175.46 222.92
  C 174.50 224.59 171.98 226.57 172.86 228.69
  C 174.02 231.52 176.71 231.06 178.51 229.02
  Q 184.33 222.44 179.00 216.16
  Q 178.66 215.76 178.77 215.23
  C 179.22 213.06 180.96 211.36 178.76 209.29
  Q 177.44 208.05 175.77 208.86
  C 173.10 210.15 172.54 214.57 172.98 217.10
  C 173.29 218.88 174.62 220.29 175.48 221.97
  Q 175.73 222.45 175.46 222.92"
/>
<path stroke="#808080" vector-effect="non-scaling-stroke" d="
  M 314.63 222.79
  A 3.01 3.01 0.0 0 0 311.62 219.78
  A 3.01 3.01 0.0 0 0 308.61 222.79
  A 3.01 3.01 0.0 0 0 311.62 225.80
  A 3.01 3.01 0.0 0 0 314.63 222.79"
/>
<path stroke="#808080" vector-effect="non-scaling-stroke" d="
  M 48.99 224.10
  C 52.27 232.99 57.02 241.57 62.20 249.56
  A 2.99 2.99 0.0 0 0 66.28 250.47
  L 66.94 250.06
  A 2.24 2.24 0.0 0 0 67.63 246.93
  Q 59.96 235.25 54.69 222.34
  A 2.87 2.86 66.1 0 0 50.81 220.83
  L 50.21 221.12
  A 2.39 2.37 -22.9 0 0 48.99 224.10"
/>
<path stroke="#808080" vector-effect="non-scaling-stroke" d="
  M 304.27 232.23
  C 298.90 241.23 294.24 249.58 286.69 258.86
  A 2.27 2.27 0.0 0 0 287.06 262.08
  L 287.63 262.51
  Q 289.95 264.31 291.82 262.04
  Q 301.98 249.72 309.22 235.46
  Q 310.54 232.85 307.92 231.57
  L 307.39 231.31
  A 2.41 2.40 28.4 0 0 304.27 232.23"
/>
<path stroke="#808080" vector-effect="non-scaling-stroke" d="
  M 143.31 303.40
  Q 146.22 305.39 149.72 305.01
  Q 150.36 304.94 150.11 305.54
  C 147.99 310.66 148.85 317.61 148.90 323.45
  A 2.40 2.39 0.5 0 0 151.25 325.83
  L 151.87 325.85
  Q 154.77 325.91 154.84 323.01
  Q 154.99 316.75 155.03 311.25
  Q 155.06 305.26 160.62 305.11
  Q 169.52 304.87 201.75 305.11
  C 206.54 305.15 208.22 307.38 208.26 312.10
  Q 208.30 317.26 208.36 322.78
  Q 208.40 325.65 211.27 325.74
  L 211.96 325.76
  A 2.32 2.31 1.7 0 0 214.34 323.53
  C 214.61 315.96 215.12 310.61 213.11 305.51
  Q 212.88 304.92 213.51 304.99
  Q 216.94 305.36 219.78 303.51
  Q 220.22 303.23 220.22 303.75
  L 220.21 323.01
  A 2.87 2.86 88.0 0 0 223.27 325.87
  L 224.07 325.82
  A 2.40 2.39 88.1 0 0 226.30 323.43
  L 226.31 298.77
  A 0.77 0.77 0.0 0 1 226.61 298.16
  L 233.92 292.66
  A 3.07 3.06 -36.0 0 0 234.59 288.46
  L 234.12 287.79
  A 2.21 2.20 53.8 0 0 230.98 287.30
  L 216.16 298.60
  A 1.94 1.90 25.4 0 1 214.97 299.01
  L 196.10 299.01
  A 2.65 2.64 87.4 0 1 193.47 296.60
  L 193.41 295.93
  A 2.92 2.91 -2.5 0 1 196.32 292.76
  L 212.52 292.76
  A 2.67 2.66 -68.3 0 0 214.46 291.92
  Q 220.09 285.96 225.99 279.93
  Q 226.23 279.68 229.23 275.85
  Q 232.25 272.01 237.00 272.31
  C 243.25 272.69 247.01 276.93 247.00 283.25
  Q 246.99 302.80 247.01 322.62
  Q 247.01 325.58 249.97 325.71
  L 250.68 325.75
  A 2.26 2.26 0.0 0 0 253.04 323.49
  Q 253.07 307.17 253.06 290.81
  Q 253.06 280.30 252.53 278.24
  Q 250.81 271.54 243.93 267.90
  Q 243.47 267.66 243.77 267.24
  Q 249.65 259.00 245.44 250.06
  C 241.99 242.75 232.28 239.87 225.82 245.34
  C 218.43 251.60 218.47 262.94 225.95 269.49
  A 0.63 0.62 41.5 0 1 226.01 270.38
  L 211.67 286.35
  Q 211.29 286.78 210.72 286.78
  L 202.78 286.77
  Q 202.21 286.77 202.17 286.20
  Q 200.87 268.85 199.56 251.50
  C 199.24 247.33 193.85 248.49 191.08 248.48
  A 0.55 0.55 0.0 0 1 190.53 247.90
  C 191.16 232.00 165.96 233.44 166.87 246.84
  Q 167.00 248.87 165.00 248.56
  Q 160.11 247.79 159.60 251.39
  C 158.95 255.99 159.07 260.63 158.51 265.17
  Q 158.09 268.64 157.98 272.13
  C 157.83 276.84 156.98 281.52 156.94 286.32
  Q 156.94 286.80 156.46 286.80
  L 152.49 286.76
  Q 151.92 286.76 151.54 286.33
  L 137.25 270.41
  Q 136.84 269.96 137.30 269.56
  Q 142.63 264.90 143.04 257.75
  Q 143.06 257.29 143.53 257.29
  C 145.11 257.32 146.86 257.60 148.11 256.61
  Q 149.46 255.53 148.98 253.98
  Q 148.14 251.26 143.99 251.21
  Q 143.24 251.20 142.96 250.51
  C 140.64 244.83 138.72 241.24 132.21 239.93
  C 124.62 238.41 116.38 243.91 116.19 251.49
  C 116.03 258.19 115.77 262.25 119.47 267.21
  Q 119.79 267.64 119.31 267.90
  C 110.23 272.74 109.60 280.49 110.14 289.85
  Q 110.32 292.90 113.36 292.63
  L 113.87 292.58
  A 2.46 2.46 0.0 0 0 116.11 290.22
  C 116.26 286.22 115.60 281.11 117.27 277.83
  C 120.11 272.26 127.36 270.71 132.48 274.16
  C 133.98 275.18 134.62 277.21 135.92 278.54
  Q 142.59 285.33 149.01 292.12
  A 2.03 2.03 0.0 0 0 150.48 292.75
  L 166.85 292.76
  A 2.96 2.96 0.0 0 1 169.80 295.85
  L 169.77 296.54
  A 2.56 2.56 0.0 0 1 167.21 299.00
  L 148.08 299.00
  Q 147.57 299.00 147.16 298.69
  L 132.89 287.72
  A 3.09 3.09 0.0 0 0 128.59 288.25
  L 128.15 288.80
  A 2.31 2.31 0.0 0 0 128.57 292.07
  L 136.42 298.03
  Q 136.87 298.38 136.87 298.95
  L 136.88 323.48
  A 2.36 2.36 0.0 0 0 139.23 325.84
  L 139.95 325.85
  Q 143.01 325.86 143.01 322.80
  L 143.01 303.56
  Q 143.01 303.20 143.31 303.40"
/>
<path stroke="#808080" vector-effect="non-scaling-stroke" d="
  M 74.78 257.68
  A 3.01 3.01 0.0 0 0 71.77 254.67
  A 3.01 3.01 0.0 0 0 68.76 257.68
  A 3.01 3.01 0.0 0 0 71.77 260.69
  A 3.01 3.01 0.0 0 0 74.78 257.68"
/>
<path stroke="#808080" vector-effect="non-scaling-stroke" d="
  M 100.72 288.84
  A 2.35 2.34 -55.0 0 0 103.96 288.27
  L 104.38 287.70
  Q 106.10 285.28 103.67 283.59
  Q 91.45 275.09 81.32 264.18
  A 2.27 2.27 0.0 0 0 78.08 264.08
  L 77.51 264.62
  Q 75.36 266.69 77.41 268.86
  Q 88.00 280.08 100.72 288.84"
/>
<path stroke="#808080" vector-effect="non-scaling-stroke" d="
  M 284.0798 269.5776
  A 3.08 2.92 0.7 0 0 281.0357 266.6202
  A 3.08 2.92 0.7 0 0 277.9202 269.5024
  A 3.08 2.92 0.7 0 0 280.9643 272.4598
  A 3.08 2.92 0.7 0 0 284.0798 269.5776"
/>
<path stroke="#808080" vector-effect="non-scaling-stroke" d="
  M 274.1692 276.1776
  A 2.94 2.94 0.0 0 0 270.0479 275.6277
  L 258.1635 284.7140
  A 2.94 2.94 0.0 0 0 257.6136 288.8353
  L 257.7108 288.9624
  A 2.94 2.94 0.0 0 0 261.8321 289.5123
  L 273.7165 280.4260
  A 2.94 2.94 0.0 0 0 274.2664 276.3047
  L 274.1692 276.1776"
/>
<path stroke="#808080" vector-effect="non-scaling-stroke" d="
  M 116.18 301.52
  A 3.01 3.01 0.0 0 0 113.17 298.51
  A 3.01 3.01 0.0 0 0 110.16 301.52
  A 3.01 3.01 0.0 0 0 113.17 304.53
  A 3.01 3.01 0.0 0 0 116.18 301.52"
/>
<path stroke="#808080" vector-effect="non-scaling-stroke" d="
  M 116.2017 313.4146
  A 2.94 2.94 0.0 0 0 113.2566 310.4798
  L 112.9766 310.4803
  A 2.94 2.94 0.0 0 0 110.0417 313.4254
  L 110.0583 322.9054
  A 2.94 2.94 0.0 0 0 113.0034 325.8402
  L 113.2834 325.8397
  A 2.94 2.94 0.0 0 0 116.2183 322.8946
  L 116.2017 313.4146"
/>
<path stroke="#808080" vector-effect="non-scaling-stroke" d="
  M 190.56 95.17
  C 188.97 96.72 186.91 98.25 185.64 99.81
  C 179.58 107.26 182.12 117.85 189.94 122.78
  A 0.30 0.30 0.0 0 0 190.40 122.52
  L 190.40 110.24
  A 3.15 3.15 0.0 0 1 193.56 107.08
  Q 203.00 107.09 212.56 107.07
  C 214.22 107.07 215.74 106.36 217.59 106.53
  Q 218.08 106.58 218.22 106.11
  L 219.44 101.85
  A 2.60 2.59 10.1 0 1 222.13 99.98
  L 223.20 100.07
  A 2.47 2.46 -79.3 0 1 225.37 103.26
  L 224.36 106.51
  Q 224.20 107.03 224.75 107.04
  L 234.98 107.12
  Q 235.41 107.12 235.33 106.70
  Q 234.72 103.33 237.93 102.53
  Q 238.43 102.41 238.90 102.62
  C 243.72 104.72 247.85 107.95 253.67 106.89
  Q 254.14 106.81 254.37 106.39
  L 261.21 94.38
  A 0.75 0.74 -65.7 0 0 260.81 93.31
  C 259.67 92.92 258.26 92.34 257.55 91.38
  C 256.41 89.83 256.93 87.66 258.73 86.89
  C 260.24 86.25 261.71 87.03 263.26 87.88
  Q 264.10 88.34 264.47 87.46
  L 267.36 80.63
  Q 267.79 79.61 266.79 79.13
  L 253.79 73.01
  A 2.73 2.73 0.0 0 1 252.73 68.96
  L 253.17 68.33
  A 2.46 2.46 0.0 0 1 256.22 67.52
  L 268.99 73.49
  A 0.66 0.66 0.0 0 0 269.92 72.99
  C 270.76 67.42 271.94 61.90 266.24 58.53
  C 262.55 56.35 256.25 53.08 251.91 54.28
  C 247.44 55.51 242.83 62.42 240.76 66.33
  Q 240.53 66.78 240.97 67.03
  C 242.72 68.01 245.65 69.22 244.40 71.91
  C 242.88 75.16 240.17 73.23 237.94 72.40
  Q 237.33 72.18 237.07 72.77
  L 230.86 86.82
  A 2.48 2.47 20.2 0 1 227.89 88.19
  L 227.40 88.05
  Q 224.40 87.17 225.54 84.26
  Q 229.36 74.50 233.96 65.92
  Q 234.42 65.05 234.91 64.44
  A 0.73 0.72 -65.4 0 0 234.48 63.27
  C 221.13 60.77 209.02 69.82 208.81 83.69
  A 2.96 2.96 0.0 0 1 205.81 86.61
  L 205.16 86.60
  A 2.25 2.25 0.0 0 1 202.95 84.60
  Q 202.48 80.45 203.77 76.52
  Q 203.98 75.87 203.30 75.93
  Q 192.56 76.84 190.39 87.28
  Q 189.77 90.27 190.98 92.92
  A 2.01 2.01 0.0 0 1 190.56 95.17"
/>
<path stroke="#808080" vector-effect="non-scaling-stroke" d="
  M 310.94 62.94
  A 0.31 0.31 0.0 0 0 310.63 62.63
  L 296.31 62.63
  A 0.31 0.31 0.0 0 0 296.00 62.94
  L 296.00 67.96
  A 0.31 0.31 0.0 0 0 296.31 68.27
  L 310.63 68.27
  A 0.31 0.31 0.0 0 0 310.94 67.96
  L 310.94 62.94"
/>
<path stroke="#808080" vector-effect="non-scaling-stroke" d="
  M 291.71 92.13
  L 291.74 91.61
  A 2.49 2.48 -88.4 0 1 294.22 89.26
  L 320.03 89.25
  Q 320.70 89.25 320.40 88.64
  C 318.69 85.16 313.95 84.60 311.46 81.80
  C 309.65 79.75 309.77 77.35 309.49 74.96
  Q 309.44 74.50 308.98 74.50
  L 298.25 74.51
  Q 297.73 74.51 297.73 75.03
  C 297.78 78.84 296.42 81.77 293.11 83.76
  C 287.97 86.85 285.83 87.38 285.77 94.16
  Q 285.70 100.30 285.77 106.58
  Q 285.78 107.08 286.27 107.08
  L 320.79 107.08
  Q 321.42 107.08 321.42 106.45
  L 321.42 95.82
  Q 321.42 95.23 320.82 95.23
  L 294.63 95.22
  Q 291.53 95.22 291.71 92.13"
/>
<path stroke="#808080" vector-effect="non-scaling-stroke" d="
  M 269.63 91.01
  L 261.31 106.64
  Q 261.08 107.07 261.57 107.07
  L 276.24 107.08
  A 0.61 0.61 0.0 0 0 276.85 106.50
  Q 277.34 97.13 270.58 90.85
  Q 270.00 90.31 269.63 91.01"
/>
<path stroke="#808080" vector-effect="non-scaling-stroke" d="
  M 202.27 113.26
  A 0.26 0.26 0.0 0 0 202.01 113.00
  L 196.73 113.00
  A 0.26 0.26 0.0 0 0 196.47 113.26
  L 196.47 181.24
  A 0.26 0.26 0.0 0 0 196.73 181.50
  L 202.01 181.50
  A 0.26 0.26 0.0 0 0 202.27 181.24
  L 202.27 113.26"
/>
<path stroke="#808080" vector-effect="non-scaling-stroke" d="
  M 223.86 120.03
  A 2.10 2.09 15.6 0 1 225.65 119.03
  Q 261.08 119.01 296.82 119.03
  C 300.92 119.03 300.43 121.24 300.57 124.34
  Q 300.59 124.95 301.20 124.95
  L 314.78 124.95
  Q 315.31 124.95 315.30 124.43
  L 315.29 113.53
  Q 315.29 113.01 314.78 113.01
  L 208.75 113.01
  Q 208.25 113.01 208.25 113.51
  L 208.25 124.47
  Q 208.25 124.95 208.73 124.95
  L 222.50 124.95
  Q 223.46 124.95 223.25 124.02
  Q 222.77 121.84 223.86 120.03"
/>
<path stroke="#808080" vector-effect="non-scaling-stroke" d="
  M 294.73 125.32
  A 0.34 0.34 0.0 0 0 294.39 124.98
  L 229.53 124.98
  A 0.34 0.34 0.0 0 0 229.19 125.32
  L 229.19 166.30
  A 0.34 0.34 0.0 0 0 229.53 166.64
  L 294.39 166.64
  A 0.34 0.34 0.0 0 0 294.73 166.30
  L 294.73 125.32"
/>
<path stroke="#808080" vector-effect="non-scaling-stroke" d="
  M 223.19 131.43
  A 0.38 0.38 0.0 0 0 222.81 131.05
  L 208.63 131.05
  A 0.38 0.38 0.0 0 0 208.25 131.43
  L 208.25 142.59
  A 0.38 0.38 0.0 0 0 208.63 142.97
  L 222.81 142.97
  A 0.38 0.38 0.0 0 0 223.19 142.59
  L 223.19 131.43"
/>
<path stroke="#808080" vector-effect="non-scaling-stroke" d="
  M 315.30 131.41
  A 0.36 0.36 0.0 0 0 314.94 131.05
  L 300.92 131.05
  A 0.36 0.36 0.0 0 0 300.56 131.41
  L 300.56 142.59
  A 0.36 0.36 0.0 0 0 300.92 142.95
  L 314.94 142.95
  A 0.36 0.36 0.0 0 0 315.30 142.59
  L 315.30 131.41"
/>
<path stroke="#808080" vector-effect="non-scaling-stroke" d="
  M 223.1997 149.2830
  A 0.38 0.38 0.0 0 0 222.8203 148.9024
  L 208.6404 148.8776
  A 0.38 0.38 0.0 0 0 208.2597 149.2570
  L 208.2403 160.3570
  A 0.38 0.38 0.0 0 0 208.6197 160.7376
  L 222.7996 160.7624
  A 0.38 0.38 0.0 0 0 223.1803 160.3830
  L 223.1997 149.2830"
/>
<path stroke="#808080" vector-effect="non-scaling-stroke" d="
  M 315.3004 149.3471
  A 0.45 0.45 0.0 0 0 314.8497 148.8979
  L 300.9897 148.9221
  A 0.45 0.45 0.0 0 0 300.5405 149.3729
  L 300.5596 160.3129
  A 0.45 0.45 0.0 0 0 301.0103 160.7621
  L 314.8703 160.7379
  A 0.45 0.45 0.0 0 0 315.3195 160.2871
  L 315.3004 149.3471"
/>
<path stroke="#808080" vector-effect="non-scaling-stroke" d="
  M 224.95 172.35
  C 222.74 171.41 223.15 169.16 223.20 167.22
  Q 223.21 166.74 222.74 166.74
  L 208.76 166.74
  Q 208.25 166.74 208.25 167.24
  L 208.25 178.00
  Q 208.25 178.50 208.75 178.50
  L 314.77 178.50
  Q 315.32 178.50 315.32 177.95
  L 315.31 167.28
  A 0.54 0.53 -90.0 0 0 314.78 166.74
  L 301.00 166.74
  Q 300.53 166.74 300.55 167.21
  C 300.61 168.98 300.75 172.73 298.00 172.73
  Q 262.25 172.75 226.60 172.74
  A 4.27 1.82 36.4 0 1 224.95 172.35"
/>
<path stroke="#808080" vector-effect="non-scaling-stroke" d="
  M 85.25 77.74
  A 2.23 2.23 0.0 0 1 83.01 79.96
  L 79.00 79.96
  Q 78.41 79.95 77.98 80.37
  Q 75.97 82.34 75.80 85.18
  Q 75.77 85.74 76.27 86.02
  Q 99.46 98.98 122.64 85.88
  C 126.15 83.90 123.93 79.92 120.91 78.97
  Q 120.45 78.82 120.17 79.21
  C 115.08 86.08 104.75 86.80 97.00 86.49
  Q 94.13 86.38 94.22 83.51
  L 94.23 82.92
  A 2.23 2.23 0.0 0 1 96.45 80.75
  C 100.33 80.73 111.51 80.18 114.13 77.14
  Q 116.33 74.59 115.20 72.24
  A 2.64 2.64 0.0 0 0 112.19 70.82
  Q 109.50 71.48 107.86 69.42
  Q 107.49 68.96 107.62 68.38
  Q 108.19 65.69 107.75 63.01
  A 0.62 0.62 0.0 0 0 106.80 62.60
  C 102.88 65.14 98.83 64.84 94.39 64.93
  C 93.03 64.96 91.85 65.39 91.28 66.58
  A 0.82 0.82 0.0 0 0 91.65 67.66
  Q 95.10 69.41 99.01 69.58
  A 2.20 2.19 -83.3 0 1 101.07 72.19
  L 100.93 72.93
  Q 100.40 75.73 97.55 75.53
  Q 91.89 75.13 87.20 71.82
  Q 85.31 70.48 85.29 72.79
  L 85.25 77.74"
/>
<path stroke="#808080" vector-effect="non-scaling-stroke" d="
  M 64.76 110.08
  C 67.49 98.59 81.13 94.71 89.86 102.87
  Q 90.32 103.29 90.50 102.70
  Q 91.19 100.49 92.64 98.70
  Q 93.04 98.19 92.41 98.07
  Q 84.74 96.58 77.58 93.48
  C 75.48 92.57 74.03 93.07 72.10 93.86
  Q 61.28 98.25 58.63 110.05
  A 0.19 0.19 0.0 0 0 58.81 110.28
  L 64.47 110.30
  Q 64.70 110.30 64.76 110.08"
/>
<path stroke="#808080" vector-effect="non-scaling-stroke" d="
  M 100.46 109.96
  C 104.54 94.83 125.86 94.62 129.48 110.04
  Q 129.54 110.29 129.80 110.29
  L 135.30 110.29
  A 0.26 0.25 -6.3 0 0 135.55 109.98
  Q 133.41 99.52 123.75 94.49
  C 122.30 93.74 121.42 93.44 119.79 94.12
  C 112.35 97.22 107.56 97.76 100.82 98.55
  Q 100.29 98.62 99.92 99.01
  Q 95.56 103.72 94.48 110.03
  Q 94.43 110.32 94.73 110.32
  L 100.04 110.28
  Q 100.38 110.28 100.46 109.96"
/>
<path stroke="#808080" vector-effect="non-scaling-stroke" d="
  M 71.28 110.34
  L 87.30 110.34
  A 0.15 0.15 0.0 0 0 87.45 110.19
  L 87.45 110.18
  A 8.06 5.56 0.0 0 0 79.39 104.62
  L 79.19 104.62
  A 8.06 5.56 0.0 0 0 71.13 110.18
  L 71.13 110.19
  A 0.15 0.15 0.0 0 0 71.28 110.34"
/>
<path stroke="#808080" vector-effect="non-scaling-stroke" d="
  M 107.04 110.34
  L 123.00 110.36
  A 0.17 0.17 0.0 0 0 123.18 110.19
  L 123.18 110.16
  A 8.02 5.58 0.1 0 0 115.17 104.57
  L 114.91 104.57
  A 8.02 5.58 0.1 0 0 106.88 110.14
  L 106.88 110.17
  A 0.17 0.17 0.0 0 0 107.04 110.34"
/>
<path stroke="#808080" vector-effect="non-scaling-stroke" d="
  M 141.83 119.22
  A 2.93 2.93 0.0 0 0 138.90 116.29
  L 52.60 116.29
  A 2.93 2.93 0.0 0 0 49.67 119.22
  L 49.67 119.32
  A 2.93 2.93 0.0 0 0 52.60 122.25
  L 138.90 122.25
  A 2.93 2.93 0.0 0 0 141.83 119.32
  L 141.83 119.22"
/>
<path stroke="#808080" vector-effect="non-scaling-stroke" d="
  M 150.67 131.18
  A 2.95 2.95 0.0 0 0 147.72 128.23
  L 46.62 128.23
  A 2.95 2.95 0.0 0 0 43.67 131.18
  L 43.67 131.26
  A 2.95 2.95 0.0 0 0 46.62 134.21
  L 147.72 134.21
  A 2.95 2.95 0.0 0 0 150.67 131.26
  L 150.67 131.18"
/>
<path stroke="#808080" vector-effect="non-scaling-stroke" d="
  M 55.80 151.85
  Q 63.26 155.03 70.75 155.02
  Q 101.13 154.99 131.50 154.94
  Q 136.42 154.94 141.42 153.05
  C 147.45 150.76 153.58 144.96 158.99 140.80
  Q 159.91 140.09 158.75 140.10
  L 41.48 140.10
  Q 40.32 140.10 41.24 140.81
  L 54.53 151.10
  Q 55.12 151.55 55.80 151.85"
/>
<path stroke="#808080" vector-effect="non-scaling-stroke" d="
  M 249.0515 89.2903
  A 4.64 3.19 25.4 0 0 246.2283 84.4184
  A 4.64 3.19 25.4 0 0 240.6685 85.3097
  A 4.64 3.19 25.4 0 0 243.4917 90.1816
  A 4.64 3.19 25.4 0 0 249.0515 89.2903"
/>
<path stroke="#808080" vector-effect="non-scaling-stroke" d="
  M 228.20 94.07
  A 3.03 3.03 0.0 0 0 225.17 91.04
  A 3.03 3.03 0.0 0 0 222.14 94.07
  A 3.03 3.03 0.0 0 0 225.17 97.10
  A 3.03 3.03 0.0 0 0 228.20 94.07"
/>
<path stroke="#808080" vector-effect="non-scaling-stroke" d="
  M 288.72 143.68
  A 2.93 2.93 0.0 0 0 285.79 140.75
  L 237.95 140.75
  A 2.93 2.93 0.0 0 0 235.02 143.68
  L 235.02 143.78
  A 2.93 2.93 0.0 0 0 237.95 146.71
  L 285.79 146.71
  A 2.93 2.93 0.0 0 0 288.72 143.78
  L 288.72 143.68"
/>
<path stroke="#808080" vector-effect="non-scaling-stroke" d="
  M 288.70 157.74
  A 2.97 2.97 0.0 0 0 285.73 154.77
  L 238.01 154.77
  A 2.97 2.97 0.0 0 0 235.04 157.74
  L 235.04 157.84
  A 2.97 2.97 0.0 0 0 238.01 160.81
  L 285.73 160.81
  A 2.97 2.97 0.0 0 0 288.70 157.84
  L 288.70 157.74"
/>
<path stroke="#808080" vector-effect="non-scaling-stroke" d="
  M 216.23 211.11
  A 2.52 2.51 44.8 0 1 212.51 211.12
  C 209.58 207.93 205.64 204.60 201.60 208.60
  C 197.98 212.18 199.61 216.83 202.84 220.16
  Q 208.50 226.00 214.00 231.82
  A 0.47 0.46 -44.6 0 0 214.67 231.82
  Q 220.28 225.98 225.86 220.06
  C 228.60 217.15 230.19 214.74 228.67 210.98
  Q 226.99 206.79 222.72 206.89
  C 219.88 206.95 218.01 209.13 216.23 211.11"
/>
<path stroke="#808080" vector-effect="non-scaling-stroke" d="
  M 173.49 248.47
  L 183.95 248.55
  A 0.72 0.72 0.0 0 0 184.67 247.83
  L 184.68 247.20
  A 4.67 4.64 -89.6 0 0 180.07 242.50
  L 177.45 242.48
  A 4.67 4.64 -89.6 0 0 172.78 247.12
  L 172.77 247.75
  A 0.72 0.72 0.0 0 0 173.49 248.47"
/>
<path stroke="#808080" vector-effect="non-scaling-stroke" d="
  M 122.71 251.41
  L 136.53 251.37
  A 0.18 0.18 0.0 0 0 136.71 251.19
  L 136.71 251.11
  A 6.95 5.58 -0.2 0 0 129.74 245.55
  L 129.46 245.55
  A 6.95 5.58 -0.2 0 0 122.53 251.15
  L 122.53 251.23
  A 0.18 0.18 0.0 0 0 122.71 251.41"
/>
<path stroke="#808080" vector-effect="non-scaling-stroke" d="
  M 233.7146 266.2100
  A 8.84 7.38 90.1 0 0 241.1100 257.3829
  A 8.84 7.38 90.1 0 0 233.7454 248.5300
  A 8.84 7.38 90.1 0 0 226.3500 257.3571
  A 8.84 7.38 90.1 0 0 233.7146 266.2100"
/>
<path stroke="#808080" vector-effect="non-scaling-stroke" d="
  M 162.93 286.15
  A 0.84 0.84 0.0 0 0 163.76 287.05
  L 195.33 287.20
  A 0.84 0.84 0.0 0 0 196.17 286.29
  L 193.78 255.22
  A 0.84 0.84 0.0 0 0 192.94 254.44
  L 166.17 254.48
  A 0.84 0.84 0.0 0 0 165.33 255.25
  L 162.93 286.15"
/>
<path stroke="#808080" vector-effect="non-scaling-stroke" d="
  M 136.23 257.34
  L 122.73 257.20
  A 0.61 0.61 0.0 0 0 122.11 257.80
  L 122.11 257.96
  A 8.07 7.30 -89.4 0 0 129.32 266.11
  L 129.44 266.11
  A 8.07 7.30 -89.4 0 0 136.83 258.12
  L 136.83 257.96
  A 0.61 0.61 0.0 0 0 136.23 257.34"
/>
<path stroke="#808080" vector-effect="non-scaling-stroke" d="
  M 176.15 293.09
  A 0.34 0.34 0.0 0 0 175.81 293.42
  L 175.61 298.65
  A 0.34 0.34 0.0 0 0 175.95 299.00
  L 187.38 299.01
  A 0.34 0.34 0.0 0 0 187.72 298.66
  L 187.51 293.41
  A 0.34 0.34 0.0 0 0 187.17 293.08
  L 176.15 293.09"
/>
</g>
<path fill="#ffffff" d="
  M 0.00 0.00
  L 376.00 0.00
  L 376.00 346.00
  L 0.00 346.00
  L 0.00 0.00
  Z
  M 279.27 91.94
  Q 276.67 87.75 272.68 84.83
  A 0.75 0.75 0.0 0 1 272.43 83.93
  C 276.53 74.20 280.45 61.48 270.21 53.87
  Q 269.71 53.49 270.25 53.18
  L 288.01 43.25
  Q 290.66 41.77 289.00 39.23
  L 288.57 38.58
  A 2.43 2.43 0.0 0 0 285.35 37.79
  L 271.07 45.81
  Q 269.94 46.45 270.49 45.27
  L 277.88 29.61
  A 2.80 2.80 0.0 0 0 276.25 25.77
  L 275.45 25.49
  A 2.35 2.34 22.0 0 0 272.57 26.71
  L 264.97 42.87
  Q 264.46 43.97 264.24 42.78
  L 261.49 27.07
  Q 260.98 24.22 258.13 24.71
  L 257.27 24.85
  A 2.31 2.30 -10.1 0 0 255.39 27.53
  L 259.12 48.05
  Q 259.22 48.58 258.70 48.44
  C 249.58 46.01 244.02 51.09 239.01 57.82
  Q 238.69 58.25 238.18 58.11
  C 224.96 54.39 214.37 58.70 206.58 69.72
  Q 206.29 70.11 205.81 70.14
  Q 204.16 70.22 202.49 70.26
  C 190.83 70.49 182.89 80.47 184.50 92.03
  A 0.90 0.90 0.0 0 1 184.18 92.85
  C 171.76 103.24 174.44 121.22 188.28 128.75
  Q 188.39 128.81 189.27 129.09
  Q 190.40 129.45 190.40 131.25
  Q 190.37 157.50 190.39 184.49
  A 3.04 3.03 -89.9 0 0 193.40 187.52
  Q 198.61 187.57 204.26 187.52
  Q 207.58 187.50 208.47 184.99
  Q 208.61 184.59 209.04 184.59
  L 314.81 184.59
  A 0.90 0.89 -5.5 0 1 315.69 185.31
  Q 316.13 187.56 318.75 187.58
  Q 324.93 187.61 330.83 187.48
  A 2.49 2.49 0.0 0 0 333.27 184.99
  L 333.28 163.14
  A 2.33 2.33 0.0 0 0 331.15 160.82
  L 330.36 160.75
  Q 327.20 160.47 327.20 163.64
  L 327.22 181.26
  Q 327.22 181.50 326.99 181.50
  L 321.75 181.50
  A 0.26 0.25 -0.0 0 1 321.49 181.25
  L 321.49 113.27
  A 0.25 0.24 -90.0 0 1 321.73 113.02
  L 326.98 113.01
  A 0.23 0.23 0.0 0 1 327.22 113.24
  L 327.21 140.21
  A 2.49 2.48 -87.3 0 0 329.46 142.69
  L 330.29 142.77
  Q 333.21 143.05 333.22 140.12
  Q 333.32 125.02 333.19 109.99
  C 333.16 106.57 330.10 107.20 327.82 107.02
  Q 327.32 106.98 327.31 106.48
  Q 327.22 99.37 327.16 92.24
  Q 327.10 84.34 320.35 80.37
  C 317.64 78.77 312.70 76.72 316.72 72.75
  Q 317.03 72.43 317.04 71.98
  L 317.05 59.77
  A 3.28 3.27 0.1 0 0 313.77 56.49
  L 293.00 56.48
  A 2.83 2.83 0.0 0 0 290.17 59.31
  Q 290.17 66.25 290.20 72.00
  Q 290.20 72.58 290.72 73.17
  C 292.53 75.22 291.88 77.61 289.51 78.85
  C 283.93 81.77 280.09 85.13 279.73 91.83
  Q 279.68 92.61 279.27 91.94
  Z
  M 163.83 35.06
  C 174.15 34.76 182.20 33.49 193.92 34.84
  Q 197.07 35.20 197.19 32.03
  L 197.21 31.44
  A 2.54 2.53 -86.4 0 0 194.90 28.82
  Q 179.43 27.44 164.01 29.29
  Q 161.14 29.63 161.47 32.50
  L 161.53 33.07
  A 2.25 2.24 85.7 0 0 163.83 35.06
  Z
  M 208.99 33.32
  A 3.02 3.02 0.0 0 0 205.97 30.30
  A 3.02 3.02 0.0 0 0 202.95 33.32
  A 3.02 3.02 0.0 0 0 205.97 36.34
  A 3.02 3.02 0.0 0 0 208.99 33.32
  Z
  M 155.79 34.21
  A 3.03 3.03 0.0 0 0 152.76 31.18
  A 3.03 3.03 0.0 0 0 149.73 34.21
  A 3.03 3.03 0.0 0 0 152.76 37.24
  A 3.03 3.03 0.0 0 0 155.79 34.21
  Z
  M 216.81 38.75
  C 225.82 41.32 232.55 43.88 240.96 47.65
  A 2.24 2.24 0.0 0 0 243.96 46.43
  L 244.22 45.79
  Q 245.29 43.09 242.66 41.85
  Q 230.65 36.21 217.81 32.80
  A 2.42 2.41 13.7 0 0 214.83 34.60
  L 214.70 35.19
  A 3.02 3.02 0.0 0 0 216.81 38.75
  Z
  M 120.07 48.83
  Q 129.92 43.72 142.64 39.82
  A 2.32 2.32 0.0 0 0 144.17 36.89
  L 143.94 36.18
  Q 143.03 33.38 140.22 34.26
  Q 125.77 38.74 112.48 46.01
  Q 110.01 47.36 111.08 49.96
  L 111.28 50.44
  A 2.29 2.29 0.0 0 0 114.26 51.69
  Q 115.59 51.15 120.07 48.83
  Z
  M 43.47 122.28
  Q 41.02 122.22 38.00 122.27
  C 33.59 122.34 33.70 128.18 37.54 128.12
  Q 38.23 128.10 38.00 128.76
  Q 37.15 131.22 37.98 133.69
  A 0.42 0.41 81.2 0 1 37.59 134.23
  C 35.22 134.23 27.82 133.01 28.72 137.62
  Q 28.97 138.88 30.66 140.20
  Q 39.42 147.07 48.25 153.84
  Q 52.58 157.17 56.39 158.59
  Q 62.97 161.05 68.75 161.05
  Q 100.75 161.08 132.74 161.01
  Q 138.22 161.00 144.41 158.37
  Q 148.59 156.59 154.33 152.05
  Q 162.28 145.75 170.25 139.48
  C 173.08 137.24 171.21 134.25 168.07 134.25
  Q 162.45 134.24 156.83 134.22
  Q 156.33 134.22 156.43 133.74
  C 157.72 127.50 154.13 122.91 147.83 122.25
  Q 147.25 122.19 147.40 121.63
  Q 148.16 118.80 147.13 116.04
  A 1.02 0.98 -43.9 0 1 147.16 115.26
  C 149.25 110.87 145.41 110.22 142.27 110.31
  A 0.67 0.66 82.0 0 1 141.60 109.80
  C 141.11 107.88 140.85 105.85 140.19 104.14
  Q 136.70 95.07 128.26 90.06
  Q 127.78 89.77 128.12 89.33
  C 133.35 82.69 129.34 75.35 122.19 73.04
  Q 121.66 72.87 121.59 72.32
  Q 120.69 66.03 114.48 64.80
  Q 114.02 64.71 113.97 64.25
  Q 113.19 57.06 107.75 54.30
  Q 104.74 52.77 103.35 55.23
  C 102.61 56.53 103.45 58.60 100.86 58.67
  C 95.22 58.83 89.92 57.94 86.24 63.31
  C 84.70 65.57 82.20 65.88 80.94 68.13
  Q 79.58 70.55 79.17 73.36
  A 0.74 0.73 88.9 0 1 78.59 73.97
  C 71.34 75.50 69.89 80.99 69.82 87.63
  A 1.06 1.04 -13.3 0 1 69.24 88.55
  L 67.80 89.28
  A 0.64 0.63 -30.6 0 1 67.00 89.08
  Q 62.96 83.39 56.52 80.80
  A 2.93 2.92 -68.5 0 0 52.69 82.47
  L 52.44 83.14
  A 2.27 2.27 0.0 0 0 53.70 86.06
  Q 58.57 88.05 61.84 92.17
  A 0.70 0.70 0.0 0 1 61.75 93.13
  Q 54.24 99.64 52.80 109.51
  A 1.22 1.20 6.9 0 1 51.47 110.54
  Q 47.62 110.14 43.76 110.34
  C 39.48 110.56 39.61 116.30 43.41 116.22
  Q 43.70 116.22 43.70 116.51
  L 43.74 122.01
  Q 43.74 122.29 43.47 122.28
  Z
  M 333.36 151.79
  A 3.02 3.02 0.0 0 0 330.34 148.77
  A 3.02 3.02 0.0 0 0 327.32 151.79
  A 3.02 3.02 0.0 0 0 330.34 154.81
  A 3.02 3.02 0.0 0 0 333.36 151.79
  Z
  M 112.29 177.05
  A 1.66 1.66 0.0 0 1 111.39 178.24
  C 102.65 182.60 92.89 184.79 83.08 186.76
  A 2.44 2.44 0.0 0 0 81.15 189.49
  L 81.22 190.02
  Q 81.63 192.95 84.54 192.45
  Q 98.25 190.11 109.23 185.77
  Q 114.69 183.62 115.81 182.32
  Q 117.52 180.34 121.50 179.43
  Q 135.80 176.16 152.90 172.55
  A 2.99 2.98 -13.1 0 1 156.40 174.72
  L 156.62 175.55
  Q 157.51 179.00 154.18 180.26
  Q 126.45 190.77 99.38 200.97
  C 93.55 203.17 87.70 204.85 82.25 204.67
  Q 72.41 204.34 62.54 204.23
  Q 59.24 204.19 56.08 205.18
  Q 48.41 207.59 39.96 210.33
  Q 37.11 211.25 38.04 214.10
  L 38.23 214.69
  A 2.39 2.39 0.0 0 0 41.24 216.21
  Q 49.89 213.39 57.57 211.10
  Q 60.69 210.17 64.02 210.26
  C 78.72 210.64 88.22 211.62 99.74 207.26
  Q 127.71 196.68 155.68 186.12
  C 160.77 184.19 164.04 179.26 162.59 173.90
  C 161.30 169.16 156.00 165.62 151.24 166.66
  Q 134.99 170.23 118.74 173.89
  Q 118.24 174.00 117.98 173.55
  C 116.59 171.06 115.59 168.50 112.51 167.68
  Q 110.13 167.06 103.26 167.88
  Q 90.31 169.44 77.49 171.90
  Q 74.89 172.39 71.76 171.02
  C 61.35 166.44 48.00 166.51 39.05 174.25
  A 3.03 3.02 -39.1 0 0 38.62 178.37
  L 39.07 178.96
  A 2.17 2.16 -38.5 0 0 42.19 179.31
  C 51.41 171.62 62.27 173.28 72.33 177.79
  C 73.58 178.35 75.09 178.44 76.25 178.23
  C 87.06 176.25 97.73 174.37 108.71 173.48
  C 111.11 173.29 112.76 174.56 112.29 177.05
  Z
  M 322.2330 197.1893
  A 2.91 2.91 0.0 0 0 320.0827 193.6804
  L 319.8883 193.6337
  A 2.91 2.91 0.0 0 0 316.3793 195.7840
  L 312.8870 210.3307
  A 2.91 2.91 0.0 0 0 315.0373 213.8396
  L 315.2317 213.8863
  A 2.91 2.91 0.0 0 0 318.7407 211.7360
  L 322.2330 197.1893
  Z
  M 215.45 203.49
  Q 214.82 204.04 214.10 203.61
  Q 206.38 198.97 200.10 202.45
  Q 194.99 205.27 193.83 210.77
  C 192.53 216.96 194.96 220.51 199.41 225.19
  Q 205.80 231.93 212.08 238.53
  A 3.17 3.17 0.0 0 0 216.69 238.53
  Q 223.82 230.97 231.12 223.27
  C 236.60 217.48 236.64 208.48 230.46 203.57
  C 226.05 200.07 219.79 199.65 215.45 203.49
  Z
  M 160.61 221.33
  C 159.13 223.46 155.83 228.19 159.37 230.31
  C 161.47 231.57 162.99 229.98 163.79 227.99
  C 164.62 225.92 166.25 224.04 166.69 222.12
  C 167.30 219.42 165.78 217.33 164.45 215.29
  C 163.03 213.14 165.47 209.65 166.50 207.81
  A 2.66 2.66 0.0 0 0 166.09 204.67
  C 164.63 203.15 162.46 203.32 161.23 205.14
  C 159.19 208.18 157.51 211.78 158.06 215.58
  C 158.32 217.38 159.59 218.85 160.62 220.36
  A 0.86 0.85 45.7 0 1 160.61 221.33
  Z
  M 175.46 222.92
  C 174.50 224.59 171.98 226.57 172.86 228.69
  C 174.02 231.52 176.71 231.06 178.51 229.02
  Q 184.33 222.44 179.00 216.16
  Q 178.66 215.76 178.77 215.23
  C 179.22 213.06 180.96 211.36 178.76 209.29
  Q 177.44 208.05 175.77 208.86
  C 173.10 210.15 172.54 214.57 172.98 217.10
  C 173.29 218.88 174.62 220.29 175.48 221.97
  Q 175.73 222.45 175.46 222.92
  Z
  M 314.63 222.79
  A 3.01 3.01 0.0 0 0 311.62 219.78
  A 3.01 3.01 0.0 0 0 308.61 222.79
  A 3.01 3.01 0.0 0 0 311.62 225.80
  A 3.01 3.01 0.0 0 0 314.63 222.79
  Z
  M 48.99 224.10
  C 52.27 232.99 57.02 241.57 62.20 249.56
  A 2.99 2.99 0.0 0 0 66.28 250.47
  L 66.94 250.06
  A 2.24 2.24 0.0 0 0 67.63 246.93
  Q 59.96 235.25 54.69 222.34
  A 2.87 2.86 66.1 0 0 50.81 220.83
  L 50.21 221.12
  A 2.39 2.37 -22.9 0 0 48.99 224.10
  Z
  M 304.27 232.23
  C 298.90 241.23 294.24 249.58 286.69 258.86
  A 2.27 2.27 0.0 0 0 287.06 262.08
  L 287.63 262.51
  Q 289.95 264.31 291.82 262.04
  Q 301.98 249.72 309.22 235.46
  Q 310.54 232.85 307.92 231.57
  L 307.39 231.31
  A 2.41 2.40 28.4 0 0 304.27 232.23
  Z
  M 143.31 303.40
  Q 146.22 305.39 149.72 305.01
  Q 150.36 304.94 150.11 305.54
  C 147.99 310.66 148.85 317.61 148.90 323.45
  A 2.40 2.39 0.5 0 0 151.25 325.83
  L 151.87 325.85
  Q 154.77 325.91 154.84 323.01
  Q 154.99 316.75 155.03 311.25
  Q 155.06 305.26 160.62 305.11
  Q 169.52 304.87 201.75 305.11
  C 206.54 305.15 208.22 307.38 208.26 312.10
  Q 208.30 317.26 208.36 322.78
  Q 208.40 325.65 211.27 325.74
  L 211.96 325.76
  A 2.32 2.31 1.7 0 0 214.34 323.53
  C 214.61 315.96 215.12 310.61 213.11 305.51
  Q 212.88 304.92 213.51 304.99
  Q 216.94 305.36 219.78 303.51
  Q 220.22 303.23 220.22 303.75
  L 220.21 323.01
  A 2.87 2.86 88.0 0 0 223.27 325.87
  L 224.07 325.82
  A 2.40 2.39 88.1 0 0 226.30 323.43
  L 226.31 298.77
  A 0.77 0.77 0.0 0 1 226.61 298.16
  L 233.92 292.66
  A 3.07 3.06 -36.0 0 0 234.59 288.46
  L 234.12 287.79
  A 2.21 2.20 53.8 0 0 230.98 287.30
  L 216.16 298.60
  A 1.94 1.90 25.4 0 1 214.97 299.01
  L 196.10 299.01
  A 2.65 2.64 87.4 0 1 193.47 296.60
  L 193.41 295.93
  A 2.92 2.91 -2.5 0 1 196.32 292.76
  L 212.52 292.76
  A 2.67 2.66 -68.3 0 0 214.46 291.92
  Q 220.09 285.96 225.99 279.93
  Q 226.23 279.68 229.23 275.85
  Q 232.25 272.01 237.00 272.31
  C 243.25 272.69 247.01 276.93 247.00 283.25
  Q 246.99 302.80 247.01 322.62
  Q 247.01 325.58 249.97 325.71
  L 250.68 325.75
  A 2.26 2.26 0.0 0 0 253.04 323.49
  Q 253.07 307.17 253.06 290.81
  Q 253.06 280.30 252.53 278.24
  Q 250.81 271.54 243.93 267.90
  Q 243.47 267.66 243.77 267.24
  Q 249.65 259.00 245.44 250.06
  C 241.99 242.75 232.28 239.87 225.82 245.34
  C 218.43 251.60 218.47 262.94 225.95 269.49
  A 0.63 0.62 41.5 0 1 226.01 270.38
  L 211.67 286.35
  Q 211.29 286.78 210.72 286.78
  L 202.78 286.77
  Q 202.21 286.77 202.17 286.20
  Q 200.87 268.85 199.56 251.50
  C 199.24 247.33 193.85 248.49 191.08 248.48
  A 0.55 0.55 0.0 0 1 190.53 247.90
  C 191.16 232.00 165.96 233.44 166.87 246.84
  Q 167.00 248.87 165.00 248.56
  Q 160.11 247.79 159.60 251.39
  C 158.95 255.99 159.07 260.63 158.51 265.17
  Q 158.09 268.64 157.98 272.13
  C 157.83 276.84 156.98 281.52 156.94 286.32
  Q 156.94 286.80 156.46 286.80
  L 152.49 286.76
  Q 151.92 286.76 151.54 286.33
  L 137.25 270.41
  Q 136.84 269.96 137.30 269.56
  Q 142.63 264.90 143.04 257.75
  Q 143.06 257.29 143.53 257.29
  C 145.11 257.32 146.86 257.60 148.11 256.61
  Q 149.46 255.53 148.98 253.98
  Q 148.14 251.26 143.99 251.21
  Q 143.24 251.20 142.96 250.51
  C 140.64 244.83 138.72 241.24 132.21 239.93
  C 124.62 238.41 116.38 243.91 116.19 251.49
  C 116.03 258.19 115.77 262.25 119.47 267.21
  Q 119.79 267.64 119.31 267.90
  C 110.23 272.74 109.60 280.49 110.14 289.85
  Q 110.32 292.90 113.36 292.63
  L 113.87 292.58
  A 2.46 2.46 0.0 0 0 116.11 290.22
  C 116.26 286.22 115.60 281.11 117.27 277.83
  C 120.11 272.26 127.36 270.71 132.48 274.16
  C 133.98 275.18 134.62 277.21 135.92 278.54
  Q 142.59 285.33 149.01 292.12
  A 2.03 2.03 0.0 0 0 150.48 292.75
  L 166.85 292.76
  A 2.96 2.96 0.0 0 1 169.80 295.85
  L 169.77 296.54
  A 2.56 2.56 0.0 0 1 167.21 299.00
  L 148.08 299.00
  Q 147.57 299.00 147.16 298.69
  L 132.89 287.72
  A 3.09 3.09 0.0 0 0 128.59 288.25
  L 128.15 288.80
  A 2.31 2.31 0.0 0 0 128.57 292.07
  L 136.42 298.03
  Q 136.87 298.38 136.87 298.95
  L 136.88 323.48
  A 2.36 2.36 0.0 0 0 139.23 325.84
  L 139.95 325.85
  Q 143.01 325.86 143.01 322.80
  L 143.01 303.56
  Q 143.01 303.20 143.31 303.40
  Z
  M 74.78 257.68
  A 3.01 3.01 0.0 0 0 71.77 254.67
  A 3.01 3.01 0.0 0 0 68.76 257.68
  A 3.01 3.01 0.0 0 0 71.77 260.69
  A 3.01 3.01 0.0 0 0 74.78 257.68
  Z
  M 100.72 288.84
  A 2.35 2.34 -55.0 0 0 103.96 288.27
  L 104.38 287.70
  Q 106.10 285.28 103.67 283.59
  Q 91.45 275.09 81.32 264.18
  A 2.27 2.27 0.0 0 0 78.08 264.08
  L 77.51 264.62
  Q 75.36 266.69 77.41 268.86
  Q 88.00 280.08 100.72 288.84
  Z
  M 284.0798 269.5776
  A 3.08 2.92 0.7 0 0 281.0357 266.6202
  A 3.08 2.92 0.7 0 0 277.9202 269.5024
  A 3.08 2.92 0.7 0 0 280.9643 272.4598
  A 3.08 2.92 0.7 0 0 284.0798 269.5776
  Z
  M 274.1692 276.1776
  A 2.94 2.94 0.0 0 0 270.0479 275.6277
  L 258.1635 284.7140
  A 2.94 2.94 0.0 0 0 257.6136 288.8353
  L 257.7108 288.9624
  A 2.94 2.94 0.0 0 0 261.8321 289.5123
  L 273.7165 280.4260
  A 2.94 2.94 0.0 0 0 274.2664 276.3047
  L 274.1692 276.1776
  Z
  M 116.18 301.52
  A 3.01 3.01 0.0 0 0 113.17 298.51
  A 3.01 3.01 0.0 0 0 110.16 301.52
  A 3.01 3.01 0.0 0 0 113.17 304.53
  A 3.01 3.01 0.0 0 0 116.18 301.52
  Z
  M 116.2017 313.4146
  A 2.94 2.94 0.0 0 0 113.2566 310.4798
  L 112.9766 310.4803
  A 2.94 2.94 0.0 0 0 110.0417 313.4254
  L 110.0583 322.9054
  A 2.94 2.94 0.0 0 0 113.0034 325.8402
  L 113.2834 325.8397
  A 2.94 2.94 0.0 0 0 116.2183 322.8946
  L 116.2017 313.4146
  Z"
/>
<path fill="#000000" d="
  M 279.73 91.83
  C 280.09 85.13 283.93 81.77 289.51 78.85
  C 291.88 77.61 292.53 75.22 290.72 73.17
  Q 290.20 72.58 290.20 72.00
  Q 290.17 66.25 290.17 59.31
  A 2.83 2.83 0.0 0 1 293.00 56.48
  L 313.77 56.49
  A 3.28 3.27 0.1 0 1 317.05 59.77
  L 317.04 71.98
  Q 317.03 72.43 316.72 72.75
  C 312.70 76.72 317.64 78.77 320.35 80.37
  Q 327.10 84.34 327.16 92.24
  Q 327.22 99.37 327.31 106.48
  Q 327.32 106.98 327.82 107.02
  C 330.10 107.20 333.16 106.57 333.19 109.99
  Q 333.32 125.02 333.22 140.12
  Q 333.21 143.05 330.29 142.77
  L 329.46 142.69
  A 2.49 2.48 -87.3 0 1 327.21 140.21
  L 327.22 113.24
  A 0.23 0.23 0.0 0 0 326.98 113.01
  L 321.73 113.02
  A 0.25 0.24 -90.0 0 0 321.49 113.27
  L 321.49 181.25
  A 0.26 0.25 0.0 0 0 321.75 181.50
  L 326.99 181.50
  Q 327.22 181.50 327.22 181.26
  L 327.20 163.64
  Q 327.20 160.47 330.36 160.75
  L 331.15 160.82
  A 2.33 2.33 0.0 0 1 333.28 163.14
  L 333.27 184.99
  A 2.49 2.49 0.0 0 1 330.83 187.48
  Q 324.93 187.61 318.75 187.58
  Q 316.13 187.56 315.69 185.31
  A 0.90 0.89 -5.5 0 0 314.81 184.59
  L 209.04 184.59
  Q 208.61 184.59 208.47 184.99
  Q 207.58 187.50 204.26 187.52
  Q 198.61 187.57 193.40 187.52
  A 3.04 3.03 -89.9 0 1 190.39 184.49
  Q 190.37 157.50 190.40 131.25
  Q 190.40 129.45 189.27 129.09
  Q 188.39 128.81 188.28 128.75
  C 174.44 121.22 171.76 103.24 184.18 92.85
  A 0.90 0.90 0.0 0 0 184.50 92.03
  C 182.89 80.47 190.83 70.49 202.49 70.26
  Q 204.16 70.22 205.81 70.14
  Q 206.29 70.11 206.58 69.72
  C 214.37 58.70 224.96 54.39 238.18 58.11
  Q 238.69 58.25 239.01 57.82
  C 244.02 51.09 249.58 46.01 258.70 48.44
  Q 259.22 48.58 259.12 48.05
  L 255.39 27.53
  A 2.31 2.30 -10.1 0 1 257.27 24.85
  L 258.13 24.71
  Q 260.98 24.22 261.49 27.07
  L 264.24 42.78
  Q 264.46 43.97 264.97 42.87
  L 272.57 26.71
  A 2.35 2.34 22.0 0 1 275.45 25.49
  L 276.25 25.77
  A 2.80 2.80 0.0 0 1 277.88 29.61
  L 270.49 45.27
  Q 269.94 46.45 271.07 45.81
  L 285.35 37.79
  A 2.43 2.43 0.0 0 1 288.57 38.58
  L 289.00 39.23
  Q 290.66 41.77 288.01 43.25
  L 270.25 53.18
  Q 269.71 53.49 270.21 53.87
  C 280.45 61.48 276.53 74.20 272.43 83.93
  A 0.75 0.75 0.0 0 0 272.68 84.83
  Q 276.67 87.75 279.27 91.94
  Q 279.68 92.61 279.73 91.83
  Z
  M 190.56 95.17
  C 188.97 96.72 186.91 98.25 185.64 99.81
  C 179.58 107.26 182.12 117.85 189.94 122.78
  A 0.30 0.30 0.0 0 0 190.40 122.52
  L 190.40 110.24
  A 3.15 3.15 0.0 0 1 193.56 107.08
  Q 203.00 107.09 212.56 107.07
  C 214.22 107.07 215.74 106.36 217.59 106.53
  Q 218.08 106.58 218.22 106.11
  L 219.44 101.85
  A 2.60 2.59 10.1 0 1 222.13 99.98
  L 223.20 100.07
  A 2.47 2.46 -79.3 0 1 225.37 103.26
  L 224.36 106.51
  Q 224.20 107.03 224.75 107.04
  L 234.98 107.12
  Q 235.41 107.12 235.33 106.70
  Q 234.72 103.33 237.93 102.53
  Q 238.43 102.41 238.90 102.62
  C 243.72 104.72 247.85 107.95 253.67 106.89
  Q 254.14 106.81 254.37 106.39
  L 261.21 94.38
  A 0.75 0.74 -65.7 0 0 260.81 93.31
  C 259.67 92.92 258.26 92.34 257.55 91.38
  C 256.41 89.83 256.93 87.66 258.73 86.89
  C 260.24 86.25 261.71 87.03 263.26 87.88
  Q 264.10 88.34 264.47 87.46
  L 267.36 80.63
  Q 267.79 79.61 266.79 79.13
  L 253.79 73.01
  A 2.73 2.73 0.0 0 1 252.73 68.96
  L 253.17 68.33
  A 2.46 2.46 0.0 0 1 256.22 67.52
  L 268.99 73.49
  A 0.66 0.66 0.0 0 0 269.92 72.99
  C 270.76 67.42 271.94 61.90 266.24 58.53
  C 262.55 56.35 256.25 53.08 251.91 54.28
  C 247.44 55.51 242.83 62.42 240.76 66.33
  Q 240.53 66.78 240.97 67.03
  C 242.72 68.01 245.65 69.22 244.40 71.91
  C 242.88 75.16 240.17 73.23 237.94 72.40
  Q 237.33 72.18 237.07 72.77
  L 230.86 86.82
  A 2.48 2.47 20.2 0 1 227.89 88.19
  L 227.40 88.05
  Q 224.40 87.17 225.54 84.26
  Q 229.36 74.50 233.96 65.92
  Q 234.42 65.05 234.91 64.44
  A 0.73 0.72 -65.4 0 0 234.48 63.27
  C 221.13 60.77 209.02 69.82 208.81 83.69
  A 2.96 2.96 0.0 0 1 205.81 86.61
  L 205.16 86.60
  A 2.25 2.25 0.0 0 1 202.95 84.60
  Q 202.48 80.45 203.77 76.52
  Q 203.98 75.87 203.30 75.93
  Q 192.56 76.84 190.39 87.28
  Q 189.77 90.27 190.98 92.92
  A 2.01 2.01 0.0 0 1 190.56 95.17
  Z
  M 310.94 62.94
  A 0.31 0.31 0.0 0 0 310.63 62.63
  L 296.31 62.63
  A 0.31 0.31 0.0 0 0 296.00 62.94
  L 296.00 67.96
  A 0.31 0.31 0.0 0 0 296.31 68.27
  L 310.63 68.27
  A 0.31 0.31 0.0 0 0 310.94 67.96
  L 310.94 62.94
  Z
  M 291.71 92.13
  L 291.74 91.61
  A 2.49 2.48 -88.4 0 1 294.22 89.26
  L 320.03 89.25
  Q 320.70 89.25 320.40 88.64
  C 318.69 85.16 313.95 84.60 311.46 81.80
  C 309.65 79.75 309.77 77.35 309.49 74.96
  Q 309.44 74.50 308.98 74.50
  L 298.25 74.51
  Q 297.73 74.51 297.73 75.03
  C 297.78 78.84 296.42 81.77 293.11 83.76
  C 287.97 86.85 285.83 87.38 285.77 94.16
  Q 285.70 100.30 285.77 106.58
  Q 285.78 107.08 286.27 107.08
  L 320.79 107.08
  Q 321.42 107.08 321.42 106.45
  L 321.42 95.82
  Q 321.42 95.23 320.82 95.23
  L 294.63 95.22
  Q 291.53 95.22 291.71 92.13
  Z
  M 269.63 91.01
  L 261.31 106.64
  Q 261.08 107.07 261.57 107.07
  L 276.24 107.08
  A 0.61 0.61 0.0 0 0 276.85 106.50
  Q 277.34 97.13 270.58 90.85
  Q 270.00 90.31 269.63 91.01
  Z
  M 202.27 113.26
  A 0.26 0.26 0.0 0 0 202.01 113.00
  L 196.73 113.00
  A 0.26 0.26 0.0 0 0 196.47 113.26
  L 196.47 181.24
  A 0.26 0.26 0.0 0 0 196.73 181.50
  L 202.01 181.50
  A 0.26 0.26 0.0 0 0 202.27 181.24
  L 202.27 113.26
  Z
  M 223.86 120.03
  A 2.10 2.09 15.6 0 1 225.65 119.03
  Q 261.08 119.01 296.82 119.03
  C 300.92 119.03 300.43 121.24 300.57 124.34
  Q 300.59 124.95 301.20 124.95
  L 314.78 124.95
  Q 315.31 124.95 315.30 124.43
  L 315.29 113.53
  Q 315.29 113.01 314.78 113.01
  L 208.75 113.01
  Q 208.25 113.01 208.25 113.51
  L 208.25 124.47
  Q 208.25 124.95 208.73 124.95
  L 222.50 124.95
  Q 223.46 124.95 223.25 124.02
  Q 222.77 121.84 223.86 120.03
  Z
  M 294.73 125.32
  A 0.34 0.34 0.0 0 0 294.39 124.98
  L 229.53 124.98
  A 0.34 0.34 0.0 0 0 229.19 125.32
  L 229.19 166.30
  A 0.34 0.34 0.0 0 0 229.53 166.64
  L 294.39 166.64
  A 0.34 0.34 0.0 0 0 294.73 166.30
  L 294.73 125.32
  Z
  M 223.19 131.43
  A 0.38 0.38 0.0 0 0 222.81 131.05
  L 208.63 131.05
  A 0.38 0.38 0.0 0 0 208.25 131.43
  L 208.25 142.59
  A 0.38 0.38 0.0 0 0 208.63 142.97
  L 222.81 142.97
  A 0.38 0.38 0.0 0 0 223.19 142.59
  L 223.19 131.43
  Z
  M 315.30 131.41
  A 0.36 0.36 0.0 0 0 314.94 131.05
  L 300.92 131.05
  A 0.36 0.36 0.0 0 0 300.56 131.41
  L 300.56 142.59
  A 0.36 0.36 0.0 0 0 300.92 142.95
  L 314.94 142.95
  A 0.36 0.36 0.0 0 0 315.30 142.59
  L 315.30 131.41
  Z
  M 223.1997 149.2830
  A 0.38 0.38 0.0 0 0 222.8203 148.9024
  L 208.6404 148.8776
  A 0.38 0.38 0.0 0 0 208.2597 149.2570
  L 208.2403 160.3570
  A 0.38 0.38 0.0 0 0 208.6197 160.7376
  L 222.7996 160.7624
  A 0.38 0.38 0.0 0 0 223.1803 160.3830
  L 223.1997 149.2830
  Z
  M 315.3004 149.3471
  A 0.45 0.45 0.0 0 0 314.8497 148.8979
  L 300.9897 148.9221
  A 0.45 0.45 0.0 0 0 300.5405 149.3729
  L 300.5596 160.3129
  A 0.45 0.45 0.0 0 0 301.0103 160.7621
  L 314.8703 160.7379
  A 0.45 0.45 0.0 0 0 315.3195 160.2871
  L 315.3004 149.3471
  Z
  M 224.95 172.35
  C 222.74 171.41 223.15 169.16 223.20 167.22
  Q 223.21 166.74 222.74 166.74
  L 208.76 166.74
  Q 208.25 166.74 208.25 167.24
  L 208.25 178.00
  Q 208.25 178.50 208.75 178.50
  L 314.77 178.50
  Q 315.32 178.50 315.32 177.95
  L 315.31 167.28
  A 0.54 0.53 -90.0 0 0 314.78 166.74
  L 301.00 166.74
  Q 300.53 166.74 300.55 167.21
  C 300.61 168.98 300.75 172.73 298.00 172.73
  Q 262.25 172.75 226.60 172.74
  A 4.27 1.82 36.4 0 1 224.95 172.35
  Z"
/>
<path fill="#000000" d="
  M 193.92 34.84
  C 182.20 33.49 174.15 34.76 163.83 35.06
  A 2.25 2.24 85.7 0 1 161.53 33.07
  L 161.47 32.50
  Q 161.14 29.63 164.01 29.29
  Q 179.43 27.44 194.90 28.82
  A 2.54 2.53 -86.4 0 1 197.21 31.44
  L 197.19 32.03
  Q 197.07 35.20 193.92 34.84
  Z"
/>
<circle fill="#000000" cx="205.97" cy="33.32" r="3.02"/>
<circle fill="#000000" cx="152.76" cy="34.21" r="3.03"/>
<path fill="#000000" d="
  M 240.96 47.65
  C 232.55 43.88 225.82 41.32 216.81 38.75
  A 3.02 3.02 0.0 0 1 214.70 35.19
  L 214.83 34.60
  A 2.42 2.41 13.7 0 1 217.81 32.80
  Q 230.65 36.21 242.66 41.85
  Q 245.29 43.09 244.22 45.79
  L 243.96 46.43
  A 2.24 2.24 0.0 0 1 240.96 47.65
  Z"
/>
<path fill="#000000" d="
  M 120.07 48.83
  Q 115.59 51.15 114.26 51.69
  A 2.29 2.29 0.0 0 1 111.28 50.44
  L 111.08 49.96
  Q 110.01 47.36 112.48 46.01
  Q 125.77 38.74 140.22 34.26
  Q 143.03 33.38 143.94 36.18
  L 144.17 36.89
  A 2.32 2.32 0.0 0 1 142.64 39.82
  Q 129.92 43.72 120.07 48.83
  Z"
/>
<path fill="#000000" d="
  M 43.47 122.28
  Q 43.74 122.29 43.74 122.01
  L 43.70 116.51
  Q 43.70 116.22 43.41 116.22
  C 39.61 116.30 39.48 110.56 43.76 110.34
  Q 47.62 110.14 51.47 110.54
  A 1.22 1.20 6.9 0 0 52.80 109.51
  Q 54.24 99.64 61.75 93.13
  A 0.70 0.70 0.0 0 0 61.84 92.17
  Q 58.57 88.05 53.70 86.06
  A 2.27 2.27 0.0 0 1 52.44 83.14
  L 52.69 82.47
  A 2.93 2.92 -68.5 0 1 56.52 80.80
  Q 62.96 83.39 67.00 89.08
  A 0.64 0.63 -30.6 0 0 67.80 89.28
  L 69.24 88.55
  A 1.06 1.04 -13.3 0 0 69.82 87.63
  C 69.89 80.99 71.34 75.50 78.59 73.97
  A 0.74 0.73 88.9 0 0 79.17 73.36
  Q 79.58 70.55 80.94 68.13
  C 82.20 65.88 84.70 65.57 86.24 63.31
  C 89.92 57.94 95.22 58.83 100.86 58.67
  C 103.45 58.60 102.61 56.53 103.35 55.23
  Q 104.74 52.77 107.75 54.30
  Q 113.19 57.06 113.97 64.25
  Q 114.02 64.71 114.48 64.80
  Q 120.69 66.03 121.59 72.32
  Q 121.66 72.87 122.19 73.04
  C 129.34 75.35 133.35 82.69 128.12 89.33
  Q 127.78 89.77 128.26 90.06
  Q 136.70 95.07 140.19 104.14
  C 140.85 105.85 141.11 107.88 141.60 109.80
  A 0.67 0.66 82.0 0 0 142.27 110.31
  C 145.41 110.22 149.25 110.87 147.16 115.26
  A 1.02 0.98 -43.9 0 0 147.13 116.04
  Q 148.16 118.80 147.40 121.63
  Q 147.25 122.19 147.83 122.25
  C 154.13 122.91 157.72 127.50 156.43 133.74
  Q 156.33 134.22 156.83 134.22
  Q 162.45 134.24 168.07 134.25
  C 171.21 134.25 173.08 137.24 170.25 139.48
  Q 162.28 145.75 154.33 152.05
  Q 148.59 156.59 144.41 158.37
  Q 138.22 161.00 132.74 161.01
  Q 100.75 161.08 68.75 161.05
  Q 62.97 161.05 56.39 158.59
  Q 52.58 157.17 48.25 153.84
  Q 39.42 147.07 30.66 140.20
  Q 28.97 138.88 28.72 137.62
  C 27.82 133.01 35.22 134.23 37.59 134.23
  A 0.42 0.41 81.2 0 0 37.98 133.69
  Q 37.15 131.22 38.00 128.76
  Q 38.23 128.10 37.54 128.12
  C 33.70 128.18 33.59 122.34 38.00 122.27
  Q 41.02 122.22 43.47 122.28
  Z
  M 85.25 77.74
  A 2.23 2.23 0.0 0 1 83.01 79.96
  L 79.00 79.96
  Q 78.41 79.95 77.98 80.37
  Q 75.97 82.34 75.80 85.18
  Q 75.77 85.74 76.27 86.02
  Q 99.46 98.98 122.64 85.88
  C 126.15 83.90 123.93 79.92 120.91 78.97
  Q 120.45 78.82 120.17 79.21
  C 115.08 86.08 104.75 86.80 97.00 86.49
  Q 94.13 86.38 94.22 83.51
  L 94.23 82.92
  A 2.23 2.23 0.0 0 1 96.45 80.75
  C 100.33 80.73 111.51 80.18 114.13 77.14
  Q 116.33 74.59 115.20 72.24
  A 2.64 2.64 0.0 0 0 112.19 70.82
  Q 109.50 71.48 107.86 69.42
  Q 107.49 68.96 107.62 68.38
  Q 108.19 65.69 107.75 63.01
  A 0.62 0.62 0.0 0 0 106.80 62.60
  C 102.88 65.14 98.83 64.84 94.39 64.93
  C 93.03 64.96 91.85 65.39 91.28 66.58
  A 0.82 0.82 0.0 0 0 91.65 67.66
  Q 95.10 69.41 99.01 69.58
  A 2.20 2.19 -83.3 0 1 101.07 72.19
  L 100.93 72.93
  Q 100.40 75.73 97.55 75.53
  Q 91.89 75.13 87.20 71.82
  Q 85.31 70.48 85.29 72.79
  L 85.25 77.74
  Z
  M 64.76 110.08
  C 67.49 98.59 81.13 94.71 89.86 102.87
  Q 90.32 103.29 90.50 102.70
  Q 91.19 100.49 92.64 98.70
  Q 93.04 98.19 92.41 98.07
  Q 84.74 96.58 77.58 93.48
  C 75.48 92.57 74.03 93.07 72.10 93.86
  Q 61.28 98.25 58.63 110.05
  A 0.19 0.19 0.0 0 0 58.81 110.28
  L 64.47 110.30
  Q 64.70 110.30 64.76 110.08
  Z
  M 100.46 109.96
  C 104.54 94.83 125.86 94.62 129.48 110.04
  Q 129.54 110.29 129.80 110.29
  L 135.30 110.29
  A 0.26 0.25 -6.3 0 0 135.55 109.98
  Q 133.41 99.52 123.75 94.49
  C 122.30 93.74 121.42 93.44 119.79 94.12
  C 112.35 97.22 107.56 97.76 100.82 98.55
  Q 100.29 98.62 99.92 99.01
  Q 95.56 103.72 94.48 110.03
  Q 94.43 110.32 94.73 110.32
  L 100.04 110.28
  Q 100.38 110.28 100.46 109.96
  Z
  M 71.28 110.34
  L 87.30 110.34
  A 0.15 0.15 0.0 0 0 87.45 110.19
  L 87.45 110.18
  A 8.06 5.56 0.0 0 0 79.39 104.62
  L 79.19 104.62
  A 8.06 5.56 0.0 0 0 71.13 110.18
  L 71.13 110.19
  A 0.15 0.15 0.0 0 0 71.28 110.34
  Z
  M 107.04 110.34
  L 123.00 110.36
  A 0.17 0.17 0.0 0 0 123.18 110.19
  L 123.18 110.16
  A 8.02 5.58 0.1 0 0 115.17 104.57
  L 114.91 104.57
  A 8.02 5.58 0.1 0 0 106.88 110.14
  L 106.88 110.17
  A 0.17 0.17 0.0 0 0 107.04 110.34
  Z
  M 141.83 119.22
  A 2.93 2.93 0.0 0 0 138.90 116.29
  L 52.60 116.29
  A 2.93 2.93 0.0 0 0 49.67 119.22
  L 49.67 119.32
  A 2.93 2.93 0.0 0 0 52.60 122.25
  L 138.90 122.25
  A 2.93 2.93 0.0 0 0 141.83 119.32
  L 141.83 119.22
  Z
  M 150.67 131.18
  A 2.95 2.95 0.0 0 0 147.72 128.23
  L 46.62 128.23
  A 2.95 2.95 0.0 0 0 43.67 131.18
  L 43.67 131.26
  A 2.95 2.95 0.0 0 0 46.62 134.21
  L 147.72 134.21
  A 2.95 2.95 0.0 0 0 150.67 131.26
  L 150.67 131.18
  Z
  M 55.80 151.85
  Q 63.26 155.03 70.75 155.02
  Q 101.13 154.99 131.50 154.94
  Q 136.42 154.94 141.42 153.05
  C 147.45 150.76 153.58 144.96 158.99 140.80
  Q 159.91 140.09 158.75 140.10
  L 41.48 140.10
  Q 40.32 140.10 41.24 140.81
  L 54.53 151.10
  Q 55.12 151.55 55.80 151.85
  Z"
/>
<path fill="#ffffff" d="
  M 190.56 95.17
  A 2.01 2.01 0.0 0 0 190.98 92.92
  Q 189.77 90.27 190.39 87.28
  Q 192.56 76.84 203.30 75.93
  Q 203.98 75.87 203.77 76.52
  Q 202.48 80.45 202.95 84.60
  A 2.25 2.25 0.0 0 0 205.16 86.60
  L 205.81 86.61
  A 2.96 2.96 0.0 0 0 208.81 83.69
  C 209.02 69.82 221.13 60.77 234.48 63.27
  A 0.73 0.72 -65.4 0 1 234.91 64.44
  Q 234.42 65.05 233.96 65.92
  Q 229.36 74.50 225.54 84.26
  Q 224.40 87.17 227.40 88.05
  L 227.89 88.19
  A 2.48 2.47 20.2 0 0 230.86 86.82
  L 237.07 72.77
  Q 237.33 72.18 237.94 72.40
  C 240.17 73.23 242.88 75.16 244.40 71.91
  C 245.65 69.22 242.72 68.01 240.97 67.03
  Q 240.53 66.78 240.76 66.33
  C 242.83 62.42 247.44 55.51 251.91 54.28
  C 256.25 53.08 262.55 56.35 266.24 58.53
  C 271.94 61.90 270.76 67.42 269.92 72.99
  A 0.66 0.66 0.0 0 1 268.99 73.49
  L 256.22 67.52
  A 2.46 2.46 0.0 0 0 253.17 68.33
  L 252.73 68.96
  A 2.73 2.73 0.0 0 0 253.79 73.01
  L 266.79 79.13
  Q 267.79 79.61 267.36 80.63
  L 264.47 87.46
  Q 264.10 88.34 263.26 87.88
  C 261.71 87.03 260.24 86.25 258.73 86.89
  C 256.93 87.66 256.41 89.83 257.55 91.38
  C 258.26 92.34 259.67 92.92 260.81 93.31
  A 0.75 0.74 -65.7 0 1 261.21 94.38
  L 254.37 106.39
  Q 254.14 106.81 253.67 106.89
  C 247.85 107.95 243.72 104.72 238.90 102.62
  Q 238.43 102.41 237.93 102.53
  Q 234.72 103.33 235.33 106.70
  Q 235.41 107.12 234.98 107.12
  L 224.75 107.04
  Q 224.20 107.03 224.36 106.51
  L 225.37 103.26
  A 2.47 2.46 -79.3 0 0 223.20 100.07
  L 222.13 99.98
  A 2.60 2.59 10.1 0 0 219.44 101.85
  L 218.22 106.11
  Q 218.08 106.58 217.59 106.53
  C 215.74 106.36 214.22 107.07 212.56 107.07
  Q 203.00 107.09 193.56 107.08
  A 3.15 3.15 0.0 0 0 190.40 110.24
  L 190.40 122.52
  A 0.30 0.30 0.0 0 1 189.94 122.78
  C 182.12 117.85 179.58 107.26 185.64 99.81
  C 186.91 98.25 188.97 96.72 190.56 95.17
  Z
  M 249.0515 89.2903
  A 4.64 3.19 25.4 0 0 246.2283 84.4184
  A 4.64 3.19 25.4 0 0 240.6685 85.3097
  A 4.64 3.19 25.4 0 0 243.4917 90.1816
  A 4.64 3.19 25.4 0 0 249.0515 89.2903
  Z
  M 228.20 94.07
  A 3.03 3.03 0.0 0 0 225.17 91.04
  A 3.03 3.03 0.0 0 0 222.14 94.07
  A 3.03 3.03 0.0 0 0 225.17 97.10
  A 3.03 3.03 0.0 0 0 228.20 94.07
  Z"
/>
<path fill="#ffffff" d="
  M 85.25 77.74
  L 85.29 72.79
  Q 85.31 70.48 87.20 71.82
  Q 91.89 75.13 97.55 75.53
  Q 100.40 75.73 100.93 72.93
  L 101.07 72.19
  A 2.20 2.19 -83.3 0 0 99.01 69.58
  Q 95.10 69.41 91.65 67.66
  A 0.82 0.82 0.0 0 1 91.28 66.58
  C 91.85 65.39 93.03 64.96 94.39 64.93
  C 98.83 64.84 102.88 65.14 106.80 62.60
  A 0.62 0.62 0.0 0 1 107.75 63.01
  Q 108.19 65.69 107.62 68.38
  Q 107.49 68.96 107.86 69.42
  Q 109.50 71.48 112.19 70.82
  A 2.64 2.64 0.0 0 1 115.20 72.24
  Q 116.33 74.59 114.13 77.14
  C 111.51 80.18 100.33 80.73 96.45 80.75
  A 2.23 2.23 0.0 0 0 94.23 82.92
  L 94.22 83.51
  Q 94.13 86.38 97.00 86.49
  C 104.75 86.80 115.08 86.08 120.17 79.21
  Q 120.45 78.82 120.91 78.97
  C 123.93 79.92 126.15 83.90 122.64 85.88
  Q 99.46 98.98 76.27 86.02
  Q 75.77 85.74 75.80 85.18
  Q 75.97 82.34 77.98 80.37
  Q 78.41 79.95 79.00 79.96
  L 83.01 79.96
  A 2.23 2.23 0.0 0 0 85.25 77.74
  Z"
/>
<rect fill="#ffffff" x="296.00" y="62.63" width="14.94" height="5.64" rx="0.31"/>
<path fill="#ffffff" d="
  M 291.71 92.13
  Q 291.53 95.22 294.63 95.22
  L 320.82 95.23
  Q 321.42 95.23 321.42 95.82
  L 321.42 106.45
  Q 321.42 107.08 320.79 107.08
  L 286.27 107.08
  Q 285.78 107.08 285.77 106.58
  Q 285.70 100.30 285.77 94.16
  C 285.83 87.38 287.97 86.85 293.11 83.76
  C 296.42 81.77 297.78 78.84 297.73 75.03
  Q 297.73 74.51 298.25 74.51
  L 308.98 74.50
  Q 309.44 74.50 309.49 74.96
  C 309.77 77.35 309.65 79.75 311.46 81.80
  C 313.95 84.60 318.69 85.16 320.40 88.64
  Q 320.70 89.25 320.03 89.25
  L 294.22 89.26
  A 2.49 2.48 -88.4 0 0 291.74 91.61
  L 291.71 92.13
  Z"
/>
<ellipse fill="#000000" cx="0.00" cy="0.00" transform="translate(244.86,87.30) rotate(25.4)" rx="4.64" ry="3.19"/>
<path fill="#ffffff" d="
  M 261.31 106.64
  L 269.63 91.01
  Q 270.00 90.31 270.58 90.85
  Q 277.34 97.13 276.85 106.50
  A 0.61 0.61 0.0 0 1 276.24 107.08
  L 261.57 107.07
  Q 261.08 107.07 261.31 106.64
  Z"
/>
<circle fill="#000000" cx="225.17" cy="94.07" r="3.03"/>
<path fill="#ffffff" d="
  M 89.86 102.87
  C 81.13 94.71 67.49 98.59 64.76 110.08
  Q 64.70 110.30 64.47 110.30
  L 58.81 110.28
  A 0.19 0.19 0.0 0 1 58.63 110.05
  Q 61.28 98.25 72.10 93.86
  C 74.03 93.07 75.48 92.57 77.58 93.48
  Q 84.74 96.58 92.41 98.07
  Q 93.04 98.19 92.64 98.70
  Q 91.19 100.49 90.50 102.70
  Q 90.32 103.29 89.86 102.87
  Z"
/>
<path fill="#ffffff" d="
  M 129.48 110.04
  C 125.86 94.62 104.54 94.83 100.46 109.96
  Q 100.38 110.28 100.04 110.28
  L 94.73 110.32
  Q 94.43 110.32 94.48 110.03
  Q 95.56 103.72 99.92 99.01
  Q 100.29 98.62 100.82 98.55
  C 107.56 97.76 112.35 97.22 119.79 94.12
  C 121.42 93.44 122.30 93.74 123.75 94.49
  Q 133.41 99.52 135.55 109.98
  A 0.26 0.25 -6.3 0 1 135.30 110.29
  L 129.80 110.29
  Q 129.54 110.29 129.48 110.04
  Z"
/>
<path fill="#ffffff" d="
  M 71.28 110.34
  A 0.15 0.15 0.0 0 1 71.13 110.19
  L 71.13 110.18
  A 8.06 5.56 -0.0 0 1 79.19 104.62
  L 79.39 104.62
  A 8.06 5.56 -0.0 0 1 87.45 110.18
  L 87.45 110.19
  A 0.15 0.15 0.0 0 1 87.30 110.34
  L 71.28 110.34
  Z"
/>
<path fill="#ffffff" d="
  M 107.04 110.34
  A 0.17 0.17 0.0 0 1 106.88 110.17
  L 106.88 110.14
  A 8.02 5.58 0.1 0 1 114.91 104.57
  L 115.17 104.57
  A 8.02 5.58 0.1 0 1 123.18 110.16
  L 123.18 110.19
  A 0.17 0.17 0.0 0 1 123.00 110.36
  L 107.04 110.34
  Z"
/>
<rect fill="#ffffff" x="196.47" y="113.00" width="5.80" height="68.50" rx="0.26"/>
<path fill="#ffffff" d="
  M 223.86 120.03
  Q 222.77 121.84 223.25 124.02
  Q 223.46 124.95 222.50 124.95
  L 208.73 124.95
  Q 208.25 124.95 208.25 124.47
  L 208.25 113.51
  Q 208.25 113.01 208.75 113.01
  L 314.78 113.01
  Q 315.29 113.01 315.29 113.53
  L 315.30 124.43
  Q 315.31 124.95 314.78 124.95
  L 301.20 124.95
  Q 300.59 124.95 300.57 124.34
  C 300.43 121.24 300.92 119.03 296.82 119.03
  Q 261.08 119.01 225.65 119.03
  A 2.10 2.09 15.6 0 0 223.86 120.03
  Z"
/>
<rect fill="#ffffff" x="49.67" y="116.29" width="92.16" height="5.96" rx="2.93"/>
<path fill="#ffffff" d="
  M 294.73 166.30
  A 0.34 0.34 0.0 0 1 294.39 166.64
  L 229.53 166.64
  A 0.34 0.34 0.0 0 1 229.19 166.30
  L 229.19 125.32
  A 0.34 0.34 0.0 0 1 229.53 124.98
  L 294.39 124.98
  A 0.34 0.34 0.0 0 1 294.73 125.32
  L 294.73 166.30
  Z
  M 288.72 143.68
  A 2.93 2.93 0.0 0 0 285.79 140.75
  L 237.95 140.75
  A 2.93 2.93 0.0 0 0 235.02 143.68
  L 235.02 143.78
  A 2.93 2.93 0.0 0 0 237.95 146.71
  L 285.79 146.71
  A 2.93 2.93 0.0 0 0 288.72 143.78
  L 288.72 143.68
  Z
  M 288.70 157.74
  A 2.97 2.97 0.0 0 0 285.73 154.77
  L 238.01 154.77
  A 2.97 2.97 0.0 0 0 235.04 157.74
  L 235.04 157.84
  A 2.97 2.97 0.0 0 0 238.01 160.81
  L 285.73 160.81
  A 2.97 2.97 0.0 0 0 288.70 157.84
  L 288.70 157.74
  Z"
/>
<rect fill="#ffffff" x="43.67" y="128.23" width="107.00" height="5.98" rx="2.95"/>
<rect fill="#ffffff" x="208.25" y="131.05" width="14.94" height="11.92" rx="0.38"/>
<rect fill="#ffffff" x="300.56" y="131.05" width="14.74" height="11.90" rx="0.36"/>
<path fill="#ffffff" d="
  M 55.80 151.85
  Q 55.12 151.55 54.53 151.10
  L 41.24 140.81
  Q 40.32 140.10 41.48 140.10
  L 158.75 140.10
  Q 159.91 140.09 158.99 140.80
  C 153.58 144.96 147.45 150.76 141.42 153.05
  Q 136.42 154.94 131.50 154.94
  Q 101.13 154.99 70.75 155.02
  Q 63.26 155.03 55.80 151.85
  Z"
/>
<rect fill="#000000" x="235.02" y="140.75" width="53.70" height="5.96" rx="2.93"/>
<rect fill="#ffffff" x="-7.47" y="-5.93" transform="translate(215.72,154.82) rotate(0.1)" width="14.94" height="11.86" rx="0.38"/>
<rect fill="#ffffff" x="-7.38" y="-5.92" transform="translate(307.93,154.83) rotate(-0.1)" width="14.76" height="11.84" rx="0.45"/>
<circle fill="#000000" cx="330.34" cy="151.79" r="3.02"/>
<rect fill="#000000" x="235.04" y="154.77" width="53.66" height="6.04" rx="2.97"/>
<path fill="#000000" d="
  M 112.29 177.05
  C 112.76 174.56 111.11 173.29 108.71 173.48
  C 97.73 174.37 87.06 176.25 76.25 178.23
  C 75.09 178.44 73.58 178.35 72.33 177.79
  C 62.27 173.28 51.41 171.62 42.19 179.31
  A 2.17 2.16 -38.5 0 1 39.07 178.96
  L 38.62 178.37
  A 3.03 3.02 -39.1 0 1 39.05 174.25
  C 48.00 166.51 61.35 166.44 71.76 171.02
  Q 74.89 172.39 77.49 171.90
  Q 90.31 169.44 103.26 167.88
  Q 110.13 167.06 112.51 167.68
  C 115.59 168.50 116.59 171.06 117.98 173.55
  Q 118.24 174.00 118.74 173.89
  Q 134.99 170.23 151.24 166.66
  C 156.00 165.62 161.30 169.16 162.59 173.90
  C 164.04 179.26 160.77 184.19 155.68 186.12
  Q 127.71 196.68 99.74 207.26
  C 88.22 211.62 78.72 210.64 64.02 210.26
  Q 60.69 210.17 57.57 211.10
  Q 49.89 213.39 41.24 216.21
  A 2.39 2.39 0.0 0 1 38.23 214.69
  L 38.04 214.10
  Q 37.11 211.25 39.96 210.33
  Q 48.41 207.59 56.08 205.18
  Q 59.24 204.19 62.54 204.23
  Q 72.41 204.34 82.25 204.67
  C 87.70 204.85 93.55 203.17 99.38 200.97
  Q 126.45 190.77 154.18 180.26
  Q 157.51 179.00 156.62 175.55
  L 156.40 174.72
  A 2.99 2.98 -13.1 0 0 152.90 172.55
  Q 135.80 176.16 121.50 179.43
  Q 117.52 180.34 115.81 182.32
  Q 114.69 183.62 109.23 185.77
  Q 98.25 190.11 84.54 192.45
  Q 81.63 192.95 81.22 190.02
  L 81.15 189.49
  A 2.44 2.44 0.0 0 1 83.08 186.76
  C 92.89 184.79 102.65 182.60 111.39 178.24
  A 1.66 1.66 0.0 0 0 112.29 177.05
  Z"
/>
<path fill="#ffffff" d="
  M 224.95 172.35
  A 4.27 1.82 36.4 0 0 226.60 172.74
  Q 262.25 172.75 298.00 172.73
  C 300.75 172.73 300.61 168.98 300.55 167.21
  Q 300.53 166.74 301.00 166.74
  L 314.78 166.74
  A 0.54 0.53 90.0 0 1 315.31 167.28
  L 315.32 177.95
  Q 315.32 178.50 314.77 178.50
  L 208.75 178.50
  Q 208.25 178.50 208.25 178.00
  L 208.25 167.24
  Q 208.25 166.74 208.76 166.74
  L 222.74 166.74
  Q 223.21 166.74 223.20 167.22
  C 223.15 169.16 222.74 171.41 224.95 172.35
  Z"
/>
<rect fill="#000000" x="-3.01" y="-10.39" transform="translate(317.56,203.76) rotate(13.5)" width="6.02" height="20.78" rx="2.91"/>
<path fill="#000000" d="
  M 215.45 203.49
  C 219.79 199.65 226.05 200.07 230.46 203.57
  C 236.64 208.48 236.60 217.48 231.12 223.27
  Q 223.82 230.97 216.69 238.53
  A 3.17 3.17 0.0 0 1 212.08 238.53
  Q 205.80 231.93 199.41 225.19
  C 194.96 220.51 192.53 216.96 193.83 210.77
  Q 194.99 205.27 200.10 202.45
  Q 206.38 198.97 214.10 203.61
  Q 214.82 204.04 215.45 203.49
  Z
  M 216.23 211.11
  A 2.52 2.51 44.8 0 1 212.51 211.12
  C 209.58 207.93 205.64 204.60 201.60 208.60
  C 197.98 212.18 199.61 216.83 202.84 220.16
  Q 208.50 226.00 214.00 231.82
  A 0.47 0.46 -44.6 0 0 214.67 231.82
  Q 220.28 225.98 225.86 220.06
  C 228.60 217.15 230.19 214.74 228.67 210.98
  Q 226.99 206.79 222.72 206.89
  C 219.88 206.95 218.01 209.13 216.23 211.11
  Z"
/>
<path fill="#000000" d="
  M 160.62 220.36
  C 159.59 218.85 158.32 217.38 158.06 215.58
  C 157.51 211.78 159.19 208.18 161.23 205.14
  C 162.46 203.32 164.63 203.15 166.09 204.67
  A 2.66 2.66 0.0 0 1 166.50 207.81
  C 165.47 209.65 163.03 213.14 164.45 215.29
  C 165.78 217.33 167.30 219.42 166.69 222.12
  C 166.25 224.04 164.62 225.92 163.79 227.99
  C 162.99 229.98 161.47 231.57 159.37 230.31
  C 155.83 228.19 159.13 223.46 160.61 221.33
  A 0.86 0.85 45.7 0 0 160.62 220.36
  Z"
/>
<path fill="#ffffff" d="
  M 216.23 211.11
  C 218.01 209.13 219.88 206.95 222.72 206.89
  Q 226.99 206.79 228.67 210.98
  C 230.19 214.74 228.60 217.15 225.86 220.06
  Q 220.28 225.98 214.67 231.82
  A 0.47 0.46 -44.6 0 1 214.00 231.82
  Q 208.50 226.00 202.84 220.16
  C 199.61 216.83 197.98 212.18 201.60 208.60
  C 205.64 204.60 209.58 207.93 212.51 211.12
  A 2.52 2.51 44.8 0 0 216.23 211.11
  Z"
/>
<path fill="#000000" d="
  M 175.48 221.97
  C 174.62 220.29 173.29 218.88 172.98 217.10
  C 172.54 214.57 173.10 210.15 175.77 208.86
  Q 177.44 208.05 178.76 209.29
  C 180.96 211.36 179.22 213.06 178.77 215.23
  Q 178.66 215.76 179.00 216.16
  Q 184.33 222.44 178.51 229.02
  C 176.71 231.06 174.02 231.52 172.86 228.69
  C 171.98 226.57 174.50 224.59 175.46 222.92
  Q 175.73 222.45 175.48 221.97
  Z"
/>
<circle fill="#000000" cx="311.62" cy="222.79" r="3.01"/>
<path fill="#000000" d="
  M 62.20 249.56
  C 57.02 241.57 52.27 232.99 48.99 224.10
  A 2.39 2.37 -22.9 0 1 50.21 221.12
  L 50.81 220.83
  A 2.87 2.86 66.1 0 1 54.69 222.34
  Q 59.96 235.25 67.63 246.93
  A 2.24 2.24 0.0 0 1 66.94 250.06
  L 66.28 250.47
  A 2.99 2.99 0.0 0 1 62.20 249.56
  Z"
/>
<path fill="#000000" d="
  M 286.69 258.86
  C 294.24 249.58 298.90 241.23 304.27 232.23
  A 2.41 2.40 28.4 0 1 307.39 231.31
  L 307.92 231.57
  Q 310.54 232.85 309.22 235.46
  Q 301.98 249.72 291.82 262.04
  Q 289.95 264.31 287.63 262.51
  L 287.06 262.08
  A 2.27 2.27 0.0 0 1 286.69 258.86
  Z"
/>
<path fill="#000000" d="
  M 143.01 303.56
  L 143.01 322.80
  Q 143.01 325.86 139.95 325.85
  L 139.23 325.84
  A 2.36 2.36 0.0 0 1 136.88 323.48
  L 136.87 298.95
  Q 136.87 298.38 136.42 298.03
  L 128.57 292.07
  A 2.31 2.31 0.0 0 1 128.15 288.80
  L 128.59 288.25
  A 3.09 3.09 0.0 0 1 132.89 287.72
  L 147.16 298.69
  Q 147.57 299.00 148.08 299.00
  L 167.21 299.00
  A 2.56 2.56 0.0 0 0 169.77 296.54
  L 169.80 295.85
  A 2.96 2.96 0.0 0 0 166.85 292.76
  L 150.48 292.75
  A 2.03 2.03 0.0 0 1 149.01 292.12
  Q 142.59 285.33 135.92 278.54
  C 134.62 277.21 133.98 275.18 132.48 274.16
  C 127.36 270.71 120.11 272.26 117.27 277.83
  C 115.60 281.11 116.26 286.22 116.11 290.22
  A 2.46 2.46 0.0 0 1 113.87 292.58
  L 113.36 292.63
  Q 110.32 292.90 110.14 289.85
  C 109.60 280.49 110.23 272.74 119.31 267.90
  Q 119.79 267.64 119.47 267.21
  C 115.77 262.25 116.03 258.19 116.19 251.49
  C 116.38 243.91 124.62 238.41 132.21 239.93
  C 138.72 241.24 140.64 244.83 142.96 250.51
  Q 143.24 251.20 143.99 251.21
  Q 148.14 251.26 148.98 253.98
  Q 149.46 255.53 148.11 256.61
  C 146.86 257.60 145.11 257.32 143.53 257.29
  Q 143.06 257.29 143.04 257.75
  Q 142.63 264.90 137.30 269.56
  Q 136.84 269.96 137.25 270.41
  L 151.54 286.33
  Q 151.92 286.76 152.49 286.76
  L 156.46 286.80
  Q 156.94 286.80 156.94 286.32
  C 156.98 281.52 157.83 276.84 157.98 272.13
  Q 158.09 268.64 158.51 265.17
  C 159.07 260.63 158.95 255.99 159.60 251.39
  Q 160.11 247.79 165.00 248.56
  Q 167.00 248.87 166.87 246.84
  C 165.96 233.44 191.16 232.00 190.53 247.90
  A 0.55 0.55 0.0 0 0 191.08 248.48
  C 193.85 248.49 199.24 247.33 199.56 251.50
  Q 200.87 268.85 202.17 286.20
  Q 202.21 286.77 202.78 286.77
  L 210.72 286.78
  Q 211.29 286.78 211.67 286.35
  L 226.01 270.38
  A 0.63 0.62 41.5 0 0 225.95 269.49
  C 218.47 262.94 218.43 251.60 225.82 245.34
  C 232.28 239.87 241.99 242.75 245.44 250.06
  Q 249.65 259.00 243.77 267.24
  Q 243.47 267.66 243.93 267.90
  Q 250.81 271.54 252.53 278.24
  Q 253.06 280.30 253.06 290.81
  Q 253.07 307.17 253.04 323.49
  A 2.26 2.26 0.0 0 1 250.68 325.75
  L 249.97 325.71
  Q 247.01 325.58 247.01 322.62
  Q 246.99 302.80 247.00 283.25
  C 247.01 276.93 243.25 272.69 237.00 272.31
  Q 232.25 272.01 229.23 275.85
  Q 226.23 279.68 225.99 279.93
  Q 220.09 285.96 214.46 291.92
  A 2.67 2.66 -68.3 0 1 212.52 292.76
  L 196.32 292.76
  A 2.92 2.91 -2.5 0 0 193.41 295.93
  L 193.47 296.60
  A 2.65 2.64 87.4 0 0 196.10 299.01
  L 214.97 299.01
  A 1.94 1.90 25.4 0 0 216.16 298.60
  L 230.98 287.30
  A 2.21 2.20 53.8 0 1 234.12 287.79
  L 234.59 288.46
  A 3.07 3.06 -36.0 0 1 233.92 292.66
  L 226.61 298.16
  A 0.77 0.77 0.0 0 0 226.31 298.77
  L 226.30 323.43
  A 2.40 2.39 88.1 0 1 224.07 325.82
  L 223.27 325.87
  A 2.87 2.86 88.0 0 1 220.21 323.01
  L 220.22 303.75
  Q 220.22 303.23 219.78 303.51
  Q 216.94 305.36 213.51 304.99
  Q 212.88 304.92 213.11 305.51
  C 215.12 310.61 214.61 315.96 214.34 323.53
  A 2.32 2.31 1.7 0 1 211.96 325.76
  L 211.27 325.74
  Q 208.40 325.65 208.36 322.78
  Q 208.30 317.26 208.26 312.10
  C 208.22 307.38 206.54 305.15 201.75 305.11
  Q 169.52 304.87 160.62 305.11
  Q 155.06 305.26 155.03 311.25
  Q 154.99 316.75 154.84 323.01
  Q 154.77 325.91 151.87 325.85
  L 151.25 325.83
  A 2.40 2.39 0.5 0 1 148.90 323.45
  C 148.85 317.61 147.99 310.66 150.11 305.54
  Q 150.36 304.94 149.72 305.01
  Q 146.22 305.39 143.31 303.40
  Q 143.01 303.20 143.01 303.56
  Z
  M 173.49 248.47
  L 183.95 248.55
  A 0.72 0.72 0.0 0 0 184.67 247.83
  L 184.68 247.20
  A 4.67 4.64 -89.6 0 0 180.07 242.50
  L 177.45 242.48
  A 4.67 4.64 -89.6 0 0 172.78 247.12
  L 172.77 247.75
  A 0.72 0.72 0.0 0 0 173.49 248.47
  Z
  M 122.71 251.41
  L 136.53 251.37
  A 0.18 0.18 0.0 0 0 136.71 251.19
  L 136.71 251.11
  A 6.95 5.58 -0.2 0 0 129.74 245.55
  L 129.46 245.55
  A 6.95 5.58 -0.2 0 0 122.53 251.15
  L 122.53 251.23
  A 0.18 0.18 0.0 0 0 122.71 251.41
  Z
  M 233.7146 266.2100
  A 8.84 7.38 90.1 0 0 241.1100 257.3829
  A 8.84 7.38 90.1 0 0 233.7454 248.5300
  A 8.84 7.38 90.1 0 0 226.3500 257.3571
  A 8.84 7.38 90.1 0 0 233.7146 266.2100
  Z
  M 162.93 286.15
  A 0.84 0.84 0.0 0 0 163.76 287.05
  L 195.33 287.20
  A 0.84 0.84 0.0 0 0 196.17 286.29
  L 193.78 255.22
  A 0.84 0.84 0.0 0 0 192.94 254.44
  L 166.17 254.48
  A 0.84 0.84 0.0 0 0 165.33 255.25
  L 162.93 286.15
  Z
  M 136.23 257.34
  L 122.73 257.20
  A 0.61 0.61 0.0 0 0 122.11 257.80
  L 122.11 257.96
  A 8.07 7.30 -89.4 0 0 129.32 266.11
  L 129.44 266.11
  A 8.07 7.30 -89.4 0 0 136.83 258.12
  L 136.83 257.96
  A 0.61 0.61 0.0 0 0 136.23 257.34
  Z
  M 176.15 293.09
  A 0.34 0.34 0.0 0 0 175.81 293.42
  L 175.61 298.65
  A 0.34 0.34 0.0 0 0 175.95 299.00
  L 187.38 299.01
  A 0.34 0.34 0.0 0 0 187.72 298.66
  L 187.51 293.41
  A 0.34 0.34 0.0 0 0 187.17 293.08
  L 176.15 293.09
  Z"
/>
<path fill="#ffffff" d="
  M 173.49 248.47
  A 0.72 0.72 0.0 0 1 172.77 247.75
  L 172.78 247.12
  A 4.67 4.64 -89.6 0 1 177.45 242.48
  L 180.07 242.50
  A 4.67 4.64 -89.6 0 1 184.68 247.20
  L 184.67 247.83
  A 0.72 0.72 0.0 0 1 183.95 248.55
  L 173.49 248.47
  Z"
/>
<path fill="#ffffff" d="
  M 122.71 251.41
  A 0.18 0.18 0.0 0 1 122.53 251.23
  L 122.53 251.15
  A 6.95 5.58 -0.2 0 1 129.46 245.55
  L 129.74 245.55
  A 6.95 5.58 -0.2 0 1 136.71 251.11
  L 136.71 251.19
  A 0.18 0.18 0.0 0 1 136.53 251.37
  L 122.71 251.41
  Z"
/>
<ellipse fill="#ffffff" cx="0.00" cy="0.00" transform="translate(233.73,257.37) rotate(90.1)" rx="8.84" ry="7.38"/>
<path fill="#ffffff" d="
  M 162.93 286.15
  L 165.33 255.25
  A 0.84 0.84 0.0 0 1 166.17 254.48
  L 192.94 254.44
  A 0.84 0.84 0.0 0 1 193.78 255.22
  L 196.17 286.29
  A 0.84 0.84 0.0 0 1 195.33 287.20
  L 163.76 287.05
  A 0.84 0.84 0.0 0 1 162.93 286.15
  Z"
/>
<circle fill="#000000" cx="71.77" cy="257.68" r="3.01"/>
<path fill="#ffffff" d="
  M 136.23 257.34
  A 0.61 0.61 0.0 0 1 136.83 257.96
  L 136.83 258.12
  A 8.07 7.30 -89.4 0 1 129.44 266.11
  L 129.32 266.11
  A 8.07 7.30 -89.4 0 1 122.11 257.96
  L 122.11 257.80
  A 0.61 0.61 0.0 0 1 122.73 257.20
  L 136.23 257.34
  Z"
/>
<path fill="#000000" d="
  M 100.72 288.84
  Q 88.00 280.08 77.41 268.86
  Q 75.36 266.69 77.51 264.62
  L 78.08 264.08
  A 2.27 2.27 0.0 0 1 81.32 264.18
  Q 91.45 275.09 103.67 283.59
  Q 106.10 285.28 104.38 287.70
  L 103.96 288.27
  A 2.35 2.34 -55.0 0 1 100.72 288.84
  Z"
/>
<ellipse fill="#000000" cx="0.00" cy="0.00" transform="translate(281.00,269.54) rotate(0.7)" rx="3.08" ry="2.92"/>
<rect fill="#000000" x="-10.42" y="-3.02" transform="translate(265.94,282.57) rotate(-37.4)" width="20.84" height="6.04" rx="2.94"/>
<path fill="#ffffff" d="
  M 176.15 293.09
  L 187.17 293.08
  A 0.34 0.34 0.0 0 1 187.51 293.41
  L 187.72 298.66
  A 0.34 0.34 0.0 0 1 187.38 299.01
  L 175.95 299.00
  A 0.34 0.34 0.0 0 1 175.61 298.65
  L 175.81 293.42
  A 0.34 0.34 0.0 0 1 176.15 293.09
  Z"
/>
<circle fill="#000000" cx="113.17" cy="301.52" r="3.01"/>
<rect fill="#000000" x="-3.08" y="-7.68" transform="translate(113.13,318.16) rotate(-0.1)" width="6.16" height="15.36" rx="2.94"/>
</svg>
